<?xml version="1.0" encoding="UTF-8" standalone="no"?>
<!-- Created with Inkscape (http://www.inkscape.org/) -->

<svg
   width="205.18434mm"
   height="224.67143mm"
   viewBox="0 0 205.18434 224.67143"
   version="1.1"
   id="svg1"
   inkscape:version="1.3.1 (91b66b0783, 2023-11-16)"
   sodipodi:docname="big splat.svg"
   xmlns:inkscape="http://www.inkscape.org/namespaces/inkscape"
   xmlns:sodipodi="http://sodipodi.sourceforge.net/DTD/sodipodi-0.dtd"
   xmlns="http://www.w3.org/2000/svg"
   xmlns:svg="http://www.w3.org/2000/svg">
  <sodipodi:namedview
     id="namedview1"
     pagecolor="#ffffff"
     bordercolor="#000000"
     borderopacity="0.25"
     inkscape:showpageshadow="2"
     inkscape:pageopacity="0.0"
     inkscape:pagecheckerboard="0"
     inkscape:deskcolor="#d1d1d1"
     inkscape:document-units="mm"
     showguides="false"
     inkscape:zoom="0.77771465"
     inkscape:cx="397.31796"
     inkscape:cy="561.25984"
     inkscape:window-width="1876"
     inkscape:window-height="1032"
     inkscape:window-x="44"
     inkscape:window-y="0"
     inkscape:window-maximized="1"
     inkscape:current-layer="layer1" />
  <defs
     id="defs1" />
  <g
     inkscape:label="Layer 1"
     inkscape:groupmode="layer"
     id="layer1">
    <path
       id="path22"
       style="color:#000000;fill:#4b4b4b;stroke-linecap:round;stroke-linejoin:round;-inkscape-stroke:none"
       d="M 102.8227,8.5461488e-5 A 40.004,40.004 0 0 0 64.00646,30.002395 c -0.71838,2.78675 -2.50075,5.11504 -4.95887,6.59753 -2.51216,1.36097 -5.40826,1.71961 -8.16436,0.93947 A 40.004,40.004 0 0 0 11.99258,104.59578 c 2.09677,2.0548 3.25951,4.8237 3.27163,7.7582 -0.0101,2.9307 -1.16703,5.6959 -3.25768,7.7515 a 40.004,40.004 0 0 0 38.89272,67.0217 c 2.75377,-0.7759 5.64309,-0.413 8.15195,0.9473 2.45565,1.4827 4.2374,3.8089 4.95526,6.5939 a 40.004,40.004 0 0 0 77.50794,-0.1582 c 0.68988,-2.7224 2.4144,-4.9928 4.77542,-6.4905 2.47863,-1.2958 5.30812,-1.6541 8.0114,-0.8889 a 40.004,40.004 0 0 0 38.89065,-67.0563 c -2.09243,-2.0505 -3.25055,-4.8104 -3.2675,-7.7381 0.017,-2.9276 1.17509,-5.6901 3.2675,-7.7406 A 40.004,40.004 0 0 0 154.30122,37.541465 c -2.70333,0.76523 -5.53275,0.40501 -8.0114,-0.8909 -2.36079,-1.49771 -4.08557,-3.76625 -4.77542,-6.48849 A 40.004,40.004 0 0 0 102.8227,8.5461488e-5 Z" />
  </g>
</svg>
