<?xml version="1.0" encoding="UTF-8" standalone="no"?>
<!-- Created partially with Inkscape (http://www.inkscape.org/) but primarily through codegen -->

<svg
   width="158.75mm"
   height="218.28127mm"
   viewBox="0 0 158.75 218.28127"
   version="1.1"
   id="svg1"
   inkscape:version="1.3.1 (91b66b0783, 2023-11-16)"
   sodipodi:docname="card front template.svg"
   xmlns:inkscape="http://www.inkscape.org/namespaces/inkscape"
   xmlns:sodipodi="http://sodipodi.sourceforge.net/DTD/sodipodi-0.dtd"
   xmlns="http://www.w3.org/2000/svg"
   xmlns:svg="http://www.w3.org/2000/svg">
  <sodipodi:namedview
     id="namedview1"
     pagecolor="#ffffff"
     bordercolor="#000000"
     borderopacity="0.25"
     inkscape:showpageshadow="2"
     inkscape:pageopacity="0.0"
     inkscape:pagecheckerboard="0"
     inkscape:deskcolor="#d1d1d1"
     inkscape:document-units="mm"
     inkscape:zoom="0.64462111"
     inkscape:cx="197.79061"
     inkscape:cy="62.827604"
     inkscape:window-width="1876"
     inkscape:window-height="1032"
     inkscape:window-x="44"
     inkscape:window-y="0"
     inkscape:window-maximized="1"
     inkscape:current-layer="layer1" />
  <defs
     id="defs1" />
  <g
     inkscape:label="Layer 1"
     inkscape:groupmode="layer"
     id="layer1"
     transform="translate(0,0)">
    <polygon
       fill="#929497"
       points="144,198 144,0 0,0 0,198 "
       id="assetback"
       transform="matrix(1.1024306,0,0,1.1024306,0,2e-4)"
       style="fill:#f1f2f2;fill-opacity:1;stroke-width:0.24" />
    <path
       id="square"
       style="fill:#f1f2f2;fill-opacity:1;stroke:none"
       d="m 9.92142,69.45312 v 9.92188 119.0625 9.92187 h 9.92239 119.0625 9.92187 V 198.4375 79.375 69.45312 h -9.92187 -119.0625 z" />
    <path
       fill="#ffffff"
       stroke="#ec1e28"
       stroke-width="0.374174"
       d="M 138.9062,208.35959 H 19.8437 c -5.4799,0 -9.9221,-4.4417 -9.9221,-9.9219 V 19.844 c 0,-5.4802 4.4422,-9.9219 9.9221,-9.9219 h 119.0625 c 5.48,0 9.9218,4.4417 9.9218,9.9219 v 178.59369 c 0,5.4802 -4.4418,9.9219 -9.9218,9.9219 z"
       id="cutline"
       style="fill:#f1f2f2;fill-opacity:1;stroke:none" />
    <path
       id="heading"
       style="fill:#4e4e4e;fill-opacity:1;stroke:none;stroke-width:12.3172;stroke-linecap:round;stroke-linejoin:round;stroke-miterlimit:4;stroke-dasharray:none;stroke-dashoffset:0;stroke-opacity:1"
       d="M 0 0.0002 L 0 69.453325 L 67.879061 69.453325 C 69.026866 69.453069 70.1277 68.996781 70.939339 68.185185 L 74.891036 64.229354 L 77.758561 61.357695 C 78.212915 60.949318 78.702724 60.766517 79.375 60.766517 C 80.047275 60.766517 80.537086 60.949318 80.991439 61.357695 L 83.858964 64.229354 L 87.810661 68.185185 C 88.6223 68.996781 89.723134 69.453069 90.870939 69.453325 L 158.75 69.453325 L 158.75 0.0002 L 0 0.0002 z " />
    <text
       xml:space="preserve"
       style="font-style:normal;font-variant:normal;font-weight:500;font-stretch:normal;font-size:49.3895px;line-height:1.25;font-family:Rubik;-inkscape-font-specification:'Rubik Medium';letter-spacing:0px;word-spacing:0px;fill:#eeeeee;fill-opacity:1;stroke:none;stroke-width:1.23474"
       x="63.172646"
       y="53.854977"
       id="pointscore"><tspan
         sodipodi:role="line"
         id="tspan4"
         x="63.172646"
         y="53.854977"
         style="font-style:normal;font-variant:normal;font-weight:500;font-stretch:normal;font-family:Rubik;-inkscape-font-specification:'Rubik Medium';fill:#eeeeee;fill-opacity:1;stroke-width:1.23474">1</tspan></text>
  </g>
</svg>
