<?xml version="1.0" encoding="UTF-8" standalone="no"?>
<!-- Created partially with Inkscape (http://www.inkscape.org/) but primarily through codegen -->

<svg
   width="158.75mm"
   height="218.28127mm"
   viewBox="0 0 158.75 218.28127"
   version="1.1"
   id="svg1"
   xmlns="http://www.w3.org/2000/svg"
   xmlns:svg="http://www.w3.org/2000/svg">
  <defs
     id="defs1" />
  <g
     id="g2"
     transform="translate(0,-2.0000001e-4)">
    <g
       id="g3">
      <polygon
         fill="#929497"
         points="0,0 0,198 144,198 144,0 "
         id="assetback"
         transform="matrix(1.1024306,0,0,1.1024306,0,2e-4)"
         style="fill:#f1f2f2;fill-opacity:1;stroke-width:0.24" />
      <path
         id="square"
         style="fill:#f1f2f2;fill-opacity:1;stroke:none"
         d="m 9.92142,69.45312 v 9.92188 119.0625 9.92187 h 9.92239 119.0625 9.92187 V 198.4375 79.375 69.45312 h -9.92187 -119.0625 z" />
      <path
         fill="#ffffff"
         stroke="#ec1e28"
         stroke-width="0.374174"
         d="M 138.9062,208.35959 H 19.8437 c -5.4799,0 -9.9221,-4.4417 -9.9221,-9.9219 V 19.844 c 0,-5.4802 4.4422,-9.9219 9.9221,-9.9219 h 119.0625 c 5.48,0 9.9218,4.4417 9.9218,9.9219 v 178.59369 c 0,5.4802 -4.4418,9.9219 -9.9218,9.9219 z"
         id="cutline"
         style="fill:#f1f2f2;fill-opacity:1;stroke:none" />
      <path
         id="heading"
         style="fill:#4e4e4e;fill-opacity:1;stroke:none;stroke-width:12.3172;stroke-linecap:round;stroke-linejoin:round;stroke-miterlimit:4;stroke-dasharray:none;stroke-dashoffset:0;stroke-opacity:1"
         d="m 0,2e-4 v 69.453125 h 67.879061 c 1.147805,-2.56e-4 2.248639,-0.456544 3.060278,-1.26814 l 3.951697,-3.955831 2.867525,-2.871659 c 0.454354,-0.408377 0.944163,-0.591178 1.616439,-0.591178 0.672275,0 1.162086,0.182801 1.616439,0.591178 l 2.867525,2.871659 3.951697,3.955831 c 0.811639,0.811596 1.912473,1.267884 3.060278,1.26814 H 158.75 V 2e-4 Z" />
      <text
         xml:space="preserve"
         style="font-style:normal;font-variant:normal;font-weight:500;font-stretch:normal;font-size:49.3895px;line-height:1.25;font-family:Rubik;-inkscape-font-specification:'Rubik Medium';letter-spacing:0px;word-spacing:0px;fill:#eeeeee;fill-opacity:1;stroke:none;stroke-width:1.23474"
         x="63.172646"
         y="53.854977"
         id="pointscore"><tspan
           id="tspan4"
           x="63.172646"
           y="53.854977"
           style="font-style:normal;font-variant:normal;font-weight:500;font-stretch:normal;font-family:Rubik;-inkscape-font-specification:'Rubik Medium';fill:#eeeeee;fill-opacity:1;stroke-width:1.23474">1</tspan></text>
      <g
         transform="matrix(0.5,0,0,0.5,52.55025,112.08125)"
         id="g1">
        <g
           id="layer1"
           transform="translate(-1066.778,-714.96415)">
          <g
             id="g471"
             transform="matrix(0,-2.3578005,2.3578005,0,-17943.862,5610.0848)">
            <circle
               style="fill:#969696;fill-opacity:1;stroke-width:6.00001;stroke-linecap:round;stroke-linejoin:round"
               id="circle470"
               cx="2053.3845"
               cy="8085.6245"
               r="22.754089" />
            <circle
               r="13.942471"
               cy="-4265.438"
               cx="-7169.3618"
               id="circle471"
               style="color:#000000;overflow:visible;fill:#414141;fill-opacity:1;fill-rule:evenodd;stroke:none;stroke-width:7.69773;stroke-linecap:round;stroke-linejoin:round;stroke-miterlimit:4;stroke-dasharray:none;stroke-opacity:1;stop-color:#000000"
               transform="rotate(-135)" />
          </g>
        </g>
      </g>
    </g>
  </g>
</svg>
