<?xml version="1.0" encoding="UTF-8" standalone="no"?>
<!-- Created with Inkscape (http://www.inkscape.org/) -->

<svg
   width="26.594191mm"
   height="26.594191mm"
   viewBox="0 0 26.59419 26.59419"
   version="1.1"
   id="svg1"
   inkscape:version="1.3.2 (091e20ef0f, 2023-11-25)"
   sodipodi:docname="p1_favicon.svg"
   xmlns:inkscape="http://www.inkscape.org/namespaces/inkscape"
   xmlns:sodipodi="http://sodipodi.sourceforge.net/DTD/sodipodi-0.dtd"
   xmlns="http://www.w3.org/2000/svg"
   xmlns:svg="http://www.w3.org/2000/svg">
  <sodipodi:namedview
     id="namedview1"
     pagecolor="#ffffff"
     bordercolor="#000000"
     borderopacity="0.25"
     inkscape:showpageshadow="2"
     inkscape:pageopacity="0.0"
     inkscape:pagecheckerboard="0"
     inkscape:deskcolor="#d1d1d1"
     inkscape:document-units="mm"
     inkscape:zoom="2.1820712"
     inkscape:cx="-9.1656037"
     inkscape:cy="91.197757"
     inkscape:window-width="1896"
     inkscape:window-height="1052"
     inkscape:window-x="24"
     inkscape:window-y="0"
     inkscape:window-maximized="1"
     inkscape:current-layer="layer1" />
  <defs
     id="defs1" />
  <g
     inkscape:label="Layer 1"
     inkscape:groupmode="layer"
     id="layer1"
     transform="translate(-135.51398,-138.17232)">
    <rect
       style="fill:#ffffff;fill-opacity:0.982143;stroke-width:8.30786;stroke-linecap:round;stroke-linejoin:round"
       id="rect19"
       width="26.594191"
       height="26.594191"
       x="135.51398"
       y="138.17232"
       rx="0"
       ry="0" />
    <g
       id="g35"
       transform="matrix(0.04626065,0,0,0.04626065,633.85831,-13.286415)">
      <path
         inkscape:connector-curvature="0"
         d="m -10498.897,3351.4019 c -2.05,0 -4.022,0.2395 -5.702,0.6354 -11.78,3.2566 -20.473,14.8508 -15.621,31.8797 3.652,12.7996 18.461,18.7564 25.518,23.4835 3.497,2.3319 7.952,6.2921 9.128,11.1274 h 0.239 0.48 0.24 c 1.178,-4.8353 5.636,-8.7865 9.129,-11.1274 7.057,-4.7271 21.869,-10.6839 25.519,-23.4835 4.852,-17.0289 -3.842,-28.6231 -15.619,-31.8797 -5.963,-1.6658 -15.552,0 -19.444,4.4337 -2.799,-3.1976 -8.525,-4.9424 -13.745,-5.0585 z"
         id="path35"
         style="fill:#4e4e4e;fill-opacity:1;stroke:#4b4b4b;stroke-width:0.377509;stroke-linecap:round;stroke-linejoin:round;stroke-miterlimit:4;stroke-dasharray:none;stroke-dashoffset:0;stroke-opacity:1" />
    </g>
    <circle
       style="fill:#414141;fill-opacity:1;stroke-width:10;stroke-linecap:round;stroke-linejoin:round"
       id="path37"
       cx="156.1214"
       cy="147.24873"
       r="3.1551952" />
    <circle
       style="fill:#a3e2a7;fill-opacity:1;stroke-width:10;stroke-linecap:round;stroke-linejoin:round"
       id="circle37"
       cx="141.50064"
       cy="147.24876"
       r="3.1551952" />
    <circle
       style="fill:#f2b7b7;fill-opacity:1;stroke-width:10;stroke-linecap:round;stroke-linejoin:round"
       id="circle38"
       cx="141.50064"
       cy="155.69008"
       r="3.1551952" />
    <circle
       style="fill:#a5dae0;fill-opacity:1;stroke-width:10;stroke-linecap:round;stroke-linejoin:round"
       id="circle39"
       cx="148.81105"
       cy="159.91069"
       r="3.1551952" />
    <circle
       style="fill:#414141;fill-opacity:1;stroke-width:6.08696;stroke-linecap:round;stroke-linejoin:round"
       id="circle40"
       cx="156.12146"
       cy="155.69006"
       r="1.9205537" />
    <circle
       style="fill:#414141;fill-opacity:1;stroke-width:6.08696;stroke-linecap:round;stroke-linejoin:round"
       id="circle41"
       cx="148.81107"
       cy="143.02814"
       r="1.9205537" />
  </g>
</svg>
