<?xml version="1.0" encoding="UTF-8" standalone="no"?>
<!-- Created with Inkscape (http://www.inkscape.org/) -->

<svg
   width="158.75mm"
   height="218.28127mm"
   viewBox="0 0 158.75 218.28127"
   version="1.1"
   id="svg1"
   inkscape:version="1.3.2 (091e20ef0f, 2023-11-25)"
   sodipodi:docname="means_cover[face].svg"
   xmlns:inkscape="http://www.inkscape.org/namespaces/inkscape"
   xmlns:sodipodi="http://sodipodi.sourceforge.net/DTD/sodipodi-0.dtd"
   xmlns="http://www.w3.org/2000/svg"
   xmlns:svg="http://www.w3.org/2000/svg">
  <sodipodi:namedview
     id="namedview1"
     pagecolor="#ffffff"
     bordercolor="#000000"
     borderopacity="0.25"
     inkscape:showpageshadow="2"
     inkscape:pageopacity="0.0"
     inkscape:pagecheckerboard="0"
     inkscape:deskcolor="#d1d1d1"
     inkscape:document-units="mm"
     inkscape:zoom="0.38573934"
     inkscape:cx="417.3803"
     inkscape:cy="736.24847"
     inkscape:window-width="1896"
     inkscape:window-height="1052"
     inkscape:window-x="24"
     inkscape:window-y="0"
     inkscape:window-maximized="1"
     inkscape:current-layer="layer1" />
  <defs
     id="defs1">
    <rect
       x="40.66116"
       y="678.98822"
       width="512.60156"
       height="111.65349"
       id="rect10-736-2" />
    <rect
       x="40.66116"
       y="678.98822"
       width="512.60156"
       height="111.65349"
       id="rect4011" />
    <rect
       x="40.66116"
       y="678.98822"
       width="472.72894"
       height="306.42566"
       id="rect4012" />
  </defs>
  <g
     inkscape:label="Layer 1"
     inkscape:groupmode="layer"
     id="layer1">
    <g
       id="g1"
       transform="translate(-205.8457,-137.054)">
      <polygon
         fill="#929497"
         points="0,198 144,198 144,0 0,0 "
         id="polygon4032"
         transform="matrix(1.1024306,0,0,1.1024306,205.8457,137.054)"
         style="fill:#3f3f3f;fill-opacity:1;stroke-width:0.24" />
      <path
         fill="#ffffff"
         stroke="#ec1e28"
         stroke-width="0.374174"
         d="M 344.7521,345.4132 H 225.6896 c -5.4799,0 -9.9221,-4.441 -9.9221,-9.922 V 156.8979 c 0,-5.4802 4.4422,-9.9219 9.9221,-9.9219 h 119.0625 c 5.48,0 9.9218,4.4417 9.9218,9.9219 v 178.5933 c 0,5.481 -4.4418,9.922 -9.9218,9.922 z"
         id="path4022"
         style="fill:#3f3f3f;fill-opacity:1;stroke:none" />
      <path
         inkscape:connector-curvature="0"
         id="path4023"
         d="m 284.8971,195.5582 a 4.4822115,4.4822115 0 0 0 -4.4122,4.545 v 35.704 c -0.5022,-0.06 -0.9618,-0.1 -1.4352,-0.147 v -29.893 a 4.4822115,4.4822115 0 0 0 -4.5493,-4.545 4.4822115,4.4822115 0 0 0 -4.4132,4.545 v 30.63 l -0.8355,7.904 -1.8509,5.683 -0.1381,-1.748 a 4.4822115,4.4822115 0 0 0 0,-0.09 l -0.7468,-7.513 a 4.4822115,4.4822115 0 0 0 -0.054,-0.343 l -1.5188,-8.533 a 4.4822115,4.4822115 0 0 0 -4.3844,-3.759 4.4822115,4.4822115 0 0 0 -4.4389,5.33 l 1.4868,8.363 0.724,7.293 0.722,9.141 a 4.4822115,4.4822115 0 0 0 0.2487,1.14 v 0 c 1.611,7.045 1.9172,10.775 7.2818,17.67 6.4483,8.288 25.3833,11.954 36.4861,1.905 2.6906,-2.437 5.692,-5.573 6.3219,-10.301 0.7647,-5.735 0.8774,-12.362 0.8548,-17.058 a 4.4822115,4.4822115 0 0 0 0,-0.368 v -30.134 a 4.4822115,4.4822115 0 0 0 -4.5494,-4.544 4.4822115,4.4822115 0 0 0 -4.4132,4.544 v 20.242 c -0.4797,-0.2 -0.9596,-0.418 -1.4374,-0.607 v -33.223 a 4.4822115,4.4822115 0 0 0 -4.5471,-4.545 4.4822115,4.4822115 0 0 0 -4.4132,4.545 v 30.342 c -0.4778,-0.122 -0.9652,-0.253 -1.4342,-0.363 v -37.276 a 4.4822115,4.4822115 0 0 0 -4.5504,-4.546 z"
         style="color:#000000;font-style:normal;font-variant:normal;font-weight:normal;font-stretch:normal;font-size:medium;line-height:normal;font-family:sans-serif;font-variant-ligatures:normal;font-variant-position:normal;font-variant-caps:normal;font-variant-numeric:normal;font-variant-alternates:normal;font-feature-settings:normal;text-indent:0;text-align:start;text-decoration:none;text-decoration-line:none;text-decoration-style:solid;text-decoration-color:#000000;letter-spacing:normal;word-spacing:normal;text-transform:none;writing-mode:lr-tb;direction:ltr;text-orientation:mixed;dominant-baseline:auto;baseline-shift:baseline;text-anchor:start;white-space:normal;shape-padding:0;clip-rule:nonzero;display:inline;overflow:visible;visibility:visible;isolation:auto;mix-blend-mode:normal;color-interpolation:sRGB;color-interpolation-filters:linearRGB;solid-color:#000000;solid-opacity:1;vector-effect:none;fill:#f1f2f2;fill-opacity:1;fill-rule:evenodd;stroke:none;stroke-width:4.31772;stroke-linecap:round;stroke-linejoin:round;stroke-miterlimit:4;stroke-dasharray:none;stroke-dashoffset:0;stroke-opacity:1;marker:none;color-rendering:auto;image-rendering:auto;shape-rendering:auto;text-rendering:auto;enable-background:accumulate" />
    </g>
  </g>
</svg>
