<?xml version="1.0" encoding="UTF-8" standalone="no"?>
<!-- Created with Inkscape (http://www.inkscape.org/) -->

<svg
   width="20.713745mm"
   height="19.103279mm"
   viewBox="0 0 20.713745 19.103279"
   version="1.1"
   id="svg1"
   inkscape:version="1.3.1 (91b66b0783, 2023-11-16)"
   sodipodi:docname="altruism.svg"
   xmlns:inkscape="http://www.inkscape.org/namespaces/inkscape"
   xmlns:sodipodi="http://sodipodi.sourceforge.net/DTD/sodipodi-0.dtd"
   xmlns="http://www.w3.org/2000/svg"
   xmlns:svg="http://www.w3.org/2000/svg">
  <sodipodi:namedview
     id="namedview1"
     pagecolor="#ffffff"
     bordercolor="#000000"
     borderopacity="0.25"
     inkscape:showpageshadow="2"
     inkscape:pageopacity="0.0"
     inkscape:pagecheckerboard="0"
     inkscape:deskcolor="#d1d1d1"
     inkscape:document-units="mm"
     inkscape:zoom="6.9366063"
     inkscape:cx="36.905655"
     inkscape:cy="52.979798"
     inkscape:window-width="1876"
     inkscape:window-height="1032"
     inkscape:window-x="44"
     inkscape:window-y="0"
     inkscape:window-maximized="1"
     inkscape:current-layer="layer1" />
  <defs
     id="defs1" />
  <g
     inkscape:label="Layer 1"
     inkscape:groupmode="layer"
     id="layer1"
     transform="translate(1.6146929e-5)">
    <g
       id="g15"
       transform="translate(-0.67339048,-0.67525006)">
      <path
         id="path11"
         style="color:#000000;fill:#4b4b4b;stroke-linecap:round;stroke-linejoin:round;-inkscape-stroke:none"
         d="m 4.2343507,2.2226034 c -0.00836,0 -0.016,0.00142 -0.024288,0.00155 C 3.7602222,2.4968463 3.3476145,2.8261677 2.9832643,3.2075562 2.9451387,3.3716588 2.9349759,3.5516936 2.9589764,3.7455078 3.4387182,3.1612334 4.0313331,2.6883267 4.6989218,2.337325 4.5586288,2.2701485 4.4046948,2.2262932 4.2462363,2.2226034 a 0.12032403,0.12032403 0 0 0 -0.011886,0 z m 7.7204593,0 c -0.03114,1.02e-5 -0.06064,0.00337 -0.09095,0.00517 -0.121303,0.085804 -0.242294,0.173191 -0.360185,0.2682007 a 0.67531752,0.67531752 0 0 1 -0.491959,0.1307414 c -0.06835,0.072398 -0.12945,0.152697 -0.179834,0.2423624 -0.01527,0.027184 -0.0285,0.056114 -0.04186,0.084749 0.163788,0.131968 0.388616,0.1154863 0.535885,-0.051676 0.230492,-0.2613508 0.526775,-0.472532 0.874365,-0.6444051 -0.07716,-0.019286 -0.15556,-0.033366 -0.235645,-0.03514 a 0.12032403,0.12032403 0 0 0 -0.0093,0 z m 2.634981,0.839742 c -0.271969,0.011635 -0.549844,0.035542 -0.810286,0.089917 -0.704388,0.1466748 -1.371163,0.5627909 -1.441773,0.6428548 -0.377302,0.4273096 -0.922051,0.6185729 -1.450557,0.576709 0.317948,0.504466 0.935839,0.7582233 1.21853,0.9467122 0.167334,0.1110694 0.371987,0.3047893 0.419613,0.4997111 a 0.12032403,0.12032403 0 0 0 0.117305,0.091984 h 0.01189 0.02532 0.01137 a 0.12032403,0.12032403 0 0 0 0.117305,-0.091984 c 0.0477,-0.1948656 0.254693,-0.3879725 0.422197,-0.4997111 0.338231,-0.2255239 1.155481,-0.5432334 1.364774,-1.273824 0.10645,-0.371903 0.09325,-0.7050475 -0.0057,-0.982369 z m -7.720459,0.00103 C 6.6264905,3.0824257 6.4168457,3.1124589 6.2910727,3.146578 5.2196606,3.4429022 4.3322712,4.0596378 3.7537599,4.9381999 3.995121,5.0999884 4.2361719,5.2194849 4.3847291,5.3185384 4.5520639,5.4296078 4.7572327,5.6233278 4.8048585,5.8182495 a 0.12032403,0.12032403 0 0 0 0.1167888,0.091984 h 0.013953 0.023254 0.013953 A 0.12032403,0.12032403 0 0 0 5.0880454,5.8182495 C 5.1357452,5.6233834 5.3422218,5.4302769 5.5097251,5.3185384 5.8479595,5.0930177 6.6657221,4.7753051 6.8750164,4.0447144 6.9813393,3.6732535 6.968067,3.340506 6.869332,3.0633789 Z M 8.783427,3.7873657 A 0.12032403,0.12032403 0 0 0 8.6661215,3.878833 C 8.6184957,4.0737548 8.4112598,4.2679915 8.2439251,4.3790609 7.9056819,4.6045911 7.088562,4.919738 6.8791505,5.6503011 6.7467855,6.1127454 6.7970261,6.517007 6.9706178,6.8259399 7.1442096,7.1348729 7.437761,7.3459727 7.7695354,7.4372721 a 0.12032403,0.12032403 0 0 0 0.00413,0.00207 c 0.096401,0.022535 0.2067689,0.03514 0.3219441,0.03514 a 0.12032403,0.12032403 0 0 0 0.00775,0 c 0.2558302,-0.00566 0.5053663,-0.1069741 0.6934977,-0.2614828 0.1249825,0.1088413 0.276556,0.1939711 0.4511353,0.2304769 0.2040773,0.042674 0.4180934,0.043799 0.5978963,-0.0062 C 10.177616,7.3459705 10.469169,7.1348713 10.642745,6.8259399 10.816321,6.5170086 10.866577,6.1127454 10.734212,5.6503011 10.524919,4.9197103 9.7071546,4.6045847 9.368921,4.3790609 9.2014179,4.2673225 8.9970095,4.0736999 8.9493084,3.878833 A 0.12032403,0.12032403 0 0 0 8.8320029,3.7873657 h -0.011886 -0.025321 z m 7.718392,0 A 0.12032403,0.12032403 0 0 0 16.384513,3.878833 C 16.336885,4.0737545 16.132236,4.2679914 15.964901,4.3790609 15.626658,4.604591 14.80902,4.919738 14.59961,5.6503011 14.467245,6.1127454 14.518,6.517007 14.69159,6.8259399 c 0.17359,0.308933 0.465075,0.5200328 0.79685,0.6113322 a 0.12032403,0.12032403 0 0 0 0.0057,0.00207 c 0.0964,0.022535 0.20522,0.03514 0.320393,0.03514 a 0.12032403,0.12032403 0 0 0 0.0098,0 c 0.255832,-0.00567 0.505366,-0.1069741 0.693498,-0.2614828 0.124848,0.1081689 0.275088,0.1940965 0.449068,0.2304769 0.204078,0.042674 0.419645,0.0438 0.599446,-0.0062 C 17.898067,7.3459742 18.18962,7.1348754 18.363196,6.825944 18.53678,6.5170086 18.587551,6.1127454 18.455188,5.6503011 18.245814,4.9197139 17.428128,4.6045846 17.089897,4.3790609 16.922393,4.2673221 16.715915,4.0736977 16.668217,3.878833 A 0.12032403,0.12032403 0 0 0 16.552979,3.787366 h -0.01395 -0.02325 z M 4.2343507,10.786938 c -0.068299,0 -0.1332896,0.0066 -0.1958537,0.0155 0.4494825,0.589962 1.0502105,1.126912 1.738912,1.625224 0.2862197,0.207096 0.5847053,0.406116 0.8883179,0.599447 0.090351,-0.121877 0.1643227,-0.259028 0.2092895,-0.415995 0.1323651,-0.462445 0.081591,-0.866709 -0.091984,-1.175639 -0.1735755,-0.308932 -0.4651297,-0.520032 -0.7968506,-0.611332 -0.1798027,-0.05 -0.3953695,-0.0463 -0.5994466,-0.0036 -0.1745352,0.0365 -0.3261625,0.119618 -0.4511353,0.22841 -0.187612,-0.153 -0.4349394,-0.254009 -0.6893636,-0.259932 h -0.00207 a 0.12032403,0.12032403 0 0 0 -0.00982,-0.0021 z m 7.7204593,0 c -0.114988,4.4e-5 -0.225688,0.0147 -0.321944,0.03721 a 0.12032403,0.12032403 0 0 0 -0.0041,0 c -0.331773,0.0913 -0.623258,0.302398 -0.79685,0.611332 -0.173592,0.308932 -0.225898,0.713194 -0.09353,1.175639 0.209412,0.730562 1.029114,1.046226 1.367359,1.271757 a 0.12032403,0.12032403 0 0 0 0,0.0021 c 0.167335,0.111068 0.371987,0.303239 0.419613,0.49816 a 0.12032403,0.12032403 0 0 0 0.117305,0.09147 h 0.01189 0.02532 0.01137 a 0.12032403,0.12032403 0 0 0 0.117305,-0.09147 c 0.0477,-0.194864 0.254693,-0.38849 0.422197,-0.500227 0.338232,-0.225524 1.155481,-0.540649 1.364774,-1.271241 0.132366,-0.462443 0.08211,-0.867225 -0.09147,-1.176155 -0.173576,-0.308932 -0.467196,-0.520032 -0.798918,-0.611332 -0.179801,-0.05 -0.393818,-0.0463 -0.597896,-0.0036 -0.174536,0.0365 -0.326162,0.119618 -0.451135,0.22841 -0.188078,-0.153379 -0.436468,-0.254286 -0.691431,-0.259932 a 0.12032403,0.12032403 0 0 0 -0.0093,-0.0021 z m -8.9477746,0.891419 c -0.048847,0.156796 -0.068501,0.331293 -0.057878,0.518831 0.6477539,0.768567 1.4467517,1.406952 2.2649781,1.957504 0.085266,-0.107283 0.1944769,-0.204179 0.2940389,-0.270785 C 5.332913,13.766242 5.1582592,13.646118 4.9862428,13.521655 4.2569798,12.993994 3.5612509,12.38953 3.0070354,11.678357 Z m 5.7763916,0.675411 a 0.12032403,0.12032403 0 0 0 -0.1173055,0.09147 c -0.047626,0.194922 -0.254862,0.389158 -0.4221964,0.500228 -0.1923533,0.128255 -0.5380045,0.288713 -0.8402588,0.534851 0.7104607,0.428639 1.4190957,0.839105 2.0417358,1.254187 0.3433291,0.228966 0.6785669,0.554582 1.0092409,0.908472 0.07165,-0.07475 0.135771,-0.157491 0.188102,-0.250631 0.173576,-0.308932 0.223829,-0.713194 0.09147,-1.175639 C 10.524922,13.486116 9.7071578,13.17099 9.368924,12.945466 9.2014205,12.833726 8.9970125,12.640105 8.9493114,12.445238 a 0.12032403,0.12032403 0 0 0 -0.1173055,-0.09147 h -0.011886 -0.025321 z m -1.9786905,2.34611 c -0.00265,0.172858 0.023406,0.332784 0.072347,0.478007 0.5220979,0.302077 0.9999951,0.577885 1.4149007,0.841292 0.14363,-0.02916 0.278612,-0.08836 0.3984253,-0.165881 C 8.1515673,15.494534 7.4948819,15.11508 6.8047365,14.699878 Z" />
      <circle
         style="fill:#4b4b4b;fill-opacity:1;stroke:none;stroke-width:1.39763;stroke-linecap:round;stroke-linejoin:round;stroke-miterlimit:4;stroke-dasharray:none;stroke-dashoffset:0;stroke-opacity:1"
         id="circle11506-4"
         cx="4.947197"
         cy="8.3480663"
         r="1.773037" />
      <circle
         r="1.773037"
         cy="8.3480663"
         cx="12.667267"
         id="circle11546-4"
         style="fill:#4b4b4b;fill-opacity:1;stroke:none;stroke-width:1.39763;stroke-linecap:round;stroke-linejoin:round;stroke-miterlimit:4;stroke-dasharray:none;stroke-dashoffset:0;stroke-opacity:1" />
      <circle
         r="1.773037"
         cy="-9.9147482"
         cx="8.8073006"
         id="circle11564-8"
         style="fill:#4b4b4b;fill-opacity:1;stroke:none;stroke-width:1.39763;stroke-linecap:round;stroke-linejoin:round;stroke-miterlimit:4;stroke-dasharray:none;stroke-dashoffset:0;stroke-opacity:1"
         transform="scale(1,-1)" />
      <circle
         transform="scale(1,-1)"
         style="fill:#4b4b4b;fill-opacity:1;stroke:none;stroke-width:1.39763;stroke-linecap:round;stroke-linejoin:round;stroke-miterlimit:4;stroke-dasharray:none;stroke-dashoffset:0;stroke-opacity:1"
         id="circle11592-2"
         cx="16.527233"
         cy="-9.9147482"
         r="1.773037" />
      <path
         style="color:#000000;fill:#eeeeee;stroke-linecap:round;stroke-linejoin:round;-inkscape-stroke:none"
         d="m 14.891215,0.67525006 c -0.526357,0 -1.068471,0.0562709 -1.596966,0.16644919 C 12.437356,1.0203029 11.716301,1.4589905 11.080778,1.9711679 10.109318,1.1400473 8.732933,0.71272645 7.3860338,0.68121477 a 0.62322827,0.62322827 0 0 0 -0.013505,0 0.62322827,0.62322827 0 0 0 -0.015756,0 v 0 c -0.5810528,0 -1.1542278,0.0438913 -1.6859874,0.18907007 C 3.9523863,1.3431851 2.4372372,2.4309007 1.5381415,4.0311313 0.63893325,5.6313619 0.3754731,7.7270011 1.0611897,10.122001 c 1.0837767,3.784215 5.3193965,5.424398 7.0713333,6.592243 0.868822,0.579365 1.933467,1.579861 2.180383,2.589022 a 0.62322827,0.62322827 0 0 0 0.604237,0.475264 h 0.04389 0.138426 0.04389 a 0.62322827,0.62322827 0 0 0 0.604237,-0.475264 c 0.246691,-1.008823 1.311561,-2.009319 2.18027,-2.589022 1.751825,-1.16762 5.987444,-2.808028 7.071446,-6.592243 C 21.685021,7.7270011 21.421561,5.6313619 20.522352,4.0311313 19.623144,2.4309007 18.110133,1.3431851 16.391959,0.87028484 15.926937,0.74255 15.416222,0.68031444 14.889752,0.67828869 Z M 7.3395541,2.3683275 v 0 c 1.1741477,0.02701 2.4923487,0.5297339 2.8880449,0.980576 a 1.0692531,1.0692531 0 0 0 1.60462,0 c 0.275727,-0.3126409 0.988229,-0.6863919 1.808658,-0.8572302 0.820429,-0.1712885 1.736068,-0.1560954 2.303616,0 1.324504,0.3647476 2.441255,1.1788744 3.103901,2.3583115 0.662983,1.1796622 0.909449,2.7561465 0.32502,4.7960775 -0.788242,2.7525447 -4.270057,4.2395587 -6.385054,5.6495937 -0.647002,0.43171 -1.352188,1.106173 -1.958788,1.916023 -0.6066,-0.80985 -1.3107736,-1.484313 -1.9581135,-1.916023 C 6.9563496,13.885621 3.4764474,12.398607 2.6880927,9.6460623 2.1038887,7.6061313 2.3484418,6.029647 3.011425,4.8499848 3.6738455,3.6707728 4.7902593,2.8591219 6.1147627,2.4940366 6.4176124,2.4118812 6.8572003,2.3672021 7.3395541,2.3659642 Z"
         id="path14" />
      <path
         id="path11460-0"
         style="color:#000000;font-style:normal;font-variant:normal;font-weight:normal;font-stretch:normal;font-size:medium;line-height:normal;font-family:sans-serif;font-variant-ligatures:normal;font-variant-position:normal;font-variant-caps:normal;font-variant-numeric:normal;font-variant-alternates:normal;font-variant-east-asian:normal;font-feature-settings:normal;font-variation-settings:normal;text-indent:0;text-align:start;text-decoration:none;text-decoration-line:none;text-decoration-style:solid;text-decoration-color:#000000;letter-spacing:normal;word-spacing:normal;text-transform:none;writing-mode:lr-tb;direction:ltr;text-orientation:mixed;dominant-baseline:auto;baseline-shift:baseline;text-anchor:start;white-space:normal;shape-padding:0;shape-margin:0;inline-size:0;clip-rule:nonzero;display:inline;overflow:visible;visibility:visible;isolation:auto;mix-blend-mode:normal;color-interpolation:sRGB;color-interpolation-filters:linearRGB;solid-color:#000000;solid-opacity:1;vector-effect:none;fill:#4b4b4b;fill-opacity:1;fill-rule:nonzero;stroke:none;stroke-width:2.13829;stroke-linecap:round;stroke-linejoin:round;stroke-miterlimit:4;stroke-dasharray:none;stroke-dashoffset:0;stroke-opacity:1;color-rendering:auto;image-rendering:auto;shape-rendering:auto;text-rendering:auto;enable-background:accumulate;stop-color:#000000"
         d="m 14.891215,0.67525006 c -0.526357,0 -1.068471,0.0562709 -1.596966,0.16644919 C 12.437356,1.0203029 11.716301,1.4589905 11.080778,1.9711679 10.109318,1.1400473 8.732933,0.71272645 7.3860338,0.68121477 a 0.62322827,0.62322827 0 0 0 -0.013505,0 0.62322827,0.62322827 0 0 0 -0.015756,0 v 0 c -0.5810528,0 -1.1542278,0.0438913 -1.6859874,0.18907007 C 3.9523863,1.3431851 2.4372372,2.4309007 1.5381415,4.0311313 0.63893325,5.6313619 0.3754731,7.7270011 1.0611897,10.122001 c 1.0837767,3.784215 5.3193965,5.424398 7.0713333,6.592243 0.868822,0.579365 1.933467,1.579861 2.180383,2.589022 a 0.62322827,0.62322827 0 0 0 0.604237,0.475264 h 0.04389 0.138426 0.04389 a 0.62322827,0.62322827 0 0 0 0.604237,-0.475264 c 0.246691,-1.008823 1.311561,-2.009319 2.18027,-2.589022 1.751825,-1.16762 5.987444,-2.808028 7.071446,-6.592243 C 21.685021,7.7270011 21.421561,5.6313619 20.522352,4.0311313 19.623144,2.4309007 18.110133,1.3431851 16.391959,0.87028484 15.926937,0.74255 15.416222,0.68031444 14.889752,0.67828869 Z M 7.3395541,2.3683275 v 0 c 1.1741477,0.02701 2.4923487,0.5297339 2.8880449,0.980576 a 1.0692531,1.0692531 0 0 0 1.60462,0 c 0.275727,-0.3126409 0.988229,-0.6863919 1.808658,-0.8572302 0.820429,-0.1712885 1.736068,-0.1560954 2.303616,0 1.324504,0.3647476 2.441255,1.1788744 3.103901,2.3583115 0.662983,1.1796622 0.909449,2.7561465 0.32502,4.7960775 -0.788242,2.7525447 -4.270057,4.2395587 -6.385054,5.6495937 -0.647002,0.43171 -1.352188,1.106173 -1.958788,1.916023 -0.6066,-0.80985 -1.3107736,-1.484313 -1.9581135,-1.916023 C 6.9563496,13.885621 3.4764474,12.398607 2.6880927,9.6460623 2.1038887,7.6061313 2.3484418,6.029647 3.011425,4.8499848 3.6738455,3.6707728 4.7902593,2.8591219 6.1147627,2.4940366 6.4176124,2.4118812 6.8572003,2.3672021 7.3395541,2.3659642 Z" />
    </g>
  </g>
</svg>
