<?xml version="1.0" encoding="UTF-8" standalone="no"?>
<!-- Created with Inkscape (http://www.inkscape.org/) -->

<svg
   width="89.460701mm"
   height="75.084999mm"
   viewBox="0 0 89.460701 75.084999"
   version="1.1"
   id="svg1"
   inkscape:version="1.3.2 (091e20ef0f, 2023-11-25)"
   sodipodi:docname="clown.svg"
   xmlns:inkscape="http://www.inkscape.org/namespaces/inkscape"
   xmlns:sodipodi="http://sodipodi.sourceforge.net/DTD/sodipodi-0.dtd"
   xmlns="http://www.w3.org/2000/svg"
   xmlns:svg="http://www.w3.org/2000/svg">
  <sodipodi:namedview
     id="namedview1"
     pagecolor="#ffffff"
     bordercolor="#000000"
     borderopacity="0.25"
     inkscape:showpageshadow="2"
     inkscape:pageopacity="0.0"
     inkscape:pagecheckerboard="0"
     inkscape:deskcolor="#d1d1d1"
     inkscape:document-units="mm"
     inkscape:zoom="0.77771465"
     inkscape:cx="298.30993"
     inkscape:cy="345.88522"
     inkscape:window-width="1896"
     inkscape:window-height="1052"
     inkscape:window-x="24"
     inkscape:window-y="0"
     inkscape:window-maximized="1"
     inkscape:current-layer="layer1" />
  <defs
     id="defs1" />
  <g
     inkscape:label="Layer 1"
     inkscape:groupmode="layer"
     id="layer1">
    <g
       id="g1"
       transform="translate(-88.63542,-80.9623)">
      <path
         style="fill:#4b4947;fill-opacity:1;stroke:none;stroke-width:8.99999;stroke-linecap:round;stroke-linejoin:round;stroke-dasharray:none;stroke-opacity:1"
         d="m 169.21342,107.6228 a 8.8851408,8.8851408 0 0 0 -8.8868,8.8868 8.8851408,8.8851408 0 0 0 3.0711,6.7164 34.051239,34.051239 0 0 1 -30.2245,18.6196 34.051239,34.051239 0 0 1 -30.0938,-18.3323 8.8851408,8.8851408 0 0 0 3.3254,-6.9065 8.8851408,8.8851408 0 0 0 -8.8821,-8.8873 8.8851408,8.8851408 0 0 0 -8.8873,8.8873 8.8851408,8.8851408 0 0 0 7.4161,8.7473 37.89415,37.89415 0 0 0 37.1217,30.6932 37.89415,37.89415 0 0 0 37.129,-30.733 8.8851408,8.8851408 0 0 0 7.7939,-8.8047 8.8851408,8.8851408 0 0 0 -8.8827,-8.8868 z"
         id="path1116" />
      <path
         style="fill:#4b4947;fill-opacity:1;stroke:none;stroke-width:8.28247;stroke-linecap:round;stroke-linejoin:round;stroke-dasharray:none;stroke-opacity:1"
         d="m 133.47577,108.3045 a 11.931401,11.931401 0 0 0 -11.93372,11.9337 11.931401,11.931401 0 0 0 11.93372,11.9283 11.931401,11.931401 0 0 0 11.92812,-11.9283 11.931401,11.931401 0 0 0 -11.92812,-11.9337 z"
         id="path1069" />
      <path
         style="fill:#4b4947;fill-opacity:1;stroke:none;stroke-width:8.99999;stroke-linecap:round;stroke-linejoin:round;stroke-dasharray:none;stroke-opacity:1"
         d="m 152.74362,80.9635 c -0.1057,0 -0.2142,0 -0.324,0.02 v 0 c -0.1625,0.025 -0.3215,0.074 -0.4692,0.1462 -0.4527,0.2214 -0.7753,0.6346 -0.879,1.1276 l -2.7813,13.2943 a 2.4426067,2.4426067 0 0 1 -1.7425,1.8557 l -8.5804,2.3564 c -0.9593,0.2639 -1.1958,0.8443 -1.1958,1.571 0,0.7267 0.2365,1.3055 1.1958,1.5694 l 8.5804,2.3585 a 2.4426067,2.4426067 0 0 1 1.7425,1.8552 l 2.7813,13.2932 c 0.2241,1.0668 0.8217,1.2945 1.5931,1.2945 0.7714,0 1.3708,-0.2277 1.5948,-1.2945 l 2.7796,-13.2932 a 2.4426067,2.4426067 0 0 1 1.7441,-1.8552 l 8.5788,-2.3585 c 0.9592,-0.2639 1.1953,-0.8427 1.1953,-1.5694 0,-0.7267 -0.2361,-1.3071 -1.1953,-1.571 l -8.5788,-2.3564 a 2.4426067,2.4426067 0 0 1 -1.7441,-1.8557 l -2.7796,-13.2943 c -0.1595,-0.7613 -0.7755,-1.2698 -1.5157,-1.295 z"
         id="path1068" />
      <path
         style="fill:#4b4947;fill-opacity:1;stroke:none;stroke-width:8.99999;stroke-linecap:round;stroke-linejoin:round;stroke-dasharray:none;stroke-opacity:1"
         d="m 114.15992,80.9635 c -0.1057,0 -0.2142,0 -0.324,0.02 v 0 c -0.1625,0.025 -0.3209,0.074 -0.4687,0.1462 -0.4526,0.2214 -0.7758,0.6346 -0.8795,1.1276 l -2.7807,13.2943 a 2.4426067,2.4426067 0 0 1 -1.7431,1.8557 l -8.5798,2.3564 c -0.9593,0.2639 -1.1958,0.8443 -1.1958,1.571 0,0.7267 0.2365,1.3055 1.1958,1.5694 l 8.5798,2.3585 a 2.4426067,2.4426067 0 0 1 1.7431,1.8552 l 2.7807,13.2932 c 0.2241,1.0668 0.8218,1.2945 1.5931,1.2945 0.7715,0 1.3708,-0.2277 1.5948,-1.2945 l 2.7797,-13.2932 a 2.4426067,2.4426067 0 0 1 1.7446,-1.8552 l 8.5782,-2.3585 c 0.9592,-0.2639 1.1958,-0.8427 1.1958,-1.5694 0,-0.7267 -0.2366,-1.3071 -1.1958,-1.571 l -8.5782,-2.3564 a 2.4426067,2.4426067 0 0 1 -1.7446,-1.8557 l -2.7797,-13.2943 c -0.1596,-0.7613 -0.7756,-1.2698 -1.5157,-1.295 z"
         id="path1057" />
    </g>
  </g>
</svg>
