<?xml version="1.0" encoding="UTF-8" standalone="no"?>
<!-- Created with Inkscape (http://www.inkscape.org/) -->

<svg
   width="89.460701mm"
   height="75.084999mm"
   viewBox="0 0 89.460701 75.084999"
   version="1.1"
   id="svg1"
   inkscape:version="1.3.1 (91b66b0783, 2023-11-16)"
   sodipodi:docname="clown.svg"
   xmlns:inkscape="http://www.inkscape.org/namespaces/inkscape"
   xmlns:sodipodi="http://sodipodi.sourceforge.net/DTD/sodipodi-0.dtd"
   xmlns="http://www.w3.org/2000/svg"
   xmlns:svg="http://www.w3.org/2000/svg">
  <sodipodi:namedview
     id="namedview1"
     pagecolor="#ffffff"
     bordercolor="#000000"
     borderopacity="0.25"
     inkscape:showpageshadow="2"
     inkscape:pageopacity="0.0"
     inkscape:pagecheckerboard="0"
     inkscape:deskcolor="#d1d1d1"
     inkscape:document-units="mm"
     inkscape:zoom="0.77771465"
     inkscape:cx="397.31796"
     inkscape:cy="561.25984"
     inkscape:window-width="1876"
     inkscape:window-height="1032"
     inkscape:window-x="44"
     inkscape:window-y="0"
     inkscape:window-maximized="1"
     inkscape:current-layer="layer1" />
  <defs
     id="defs1" />
  <g
     inkscape:label="Layer 1"
     inkscape:groupmode="layer"
     id="layer1">
    <path
       id="path159"
       style="fill:#4b4947;fill-opacity:1;stroke:none;stroke-width:8.99999;stroke-linecap:round;stroke-linejoin:round;stroke-dasharray:none;stroke-opacity:1"
       d="m 25.5245,0.0012 c -0.1057,0 -0.2142,0 -0.324,0.02 v 0 C 25.038,0.0462 24.8796,0.0952 24.7318,0.1674 24.2792,0.3888 23.956,0.802 23.8523,1.295 l -2.7807,13.2943 a 2.4426067,2.4426067 0 0 1 -1.7431,1.8557 l -8.5798,2.3564 c -0.9592997,0.2639 -1.1957997,0.8443 -1.1957997,1.571 0,0.7267 0.2365,1.3055 1.1957997,1.5694 l 8.5798,2.3585 a 2.4426067,2.4426067 0 0 1 1.7431,1.8552 l 2.7807,13.2932 c 0.2241,1.0668 0.8218,1.2945 1.5931,1.2945 0.7715,0 1.3708,-0.2277 1.5948,-1.2945 l 2.7797,-13.2932 a 2.4426067,2.4426067 0 0 1 1.7446,-1.8552 l 8.5782,-2.3585 c 0.9592,-0.2639 1.1958,-0.8427 1.1958,-1.5694 0,-0.7267 -0.2366,-1.3071 -1.1958,-1.571 L 31.5645,16.445 A 2.4426067,2.4426067 0 0 1 29.8199,14.5893 L 27.0402,1.295 C 26.8806,0.5337 26.2646,0.0252 25.5245,0 Z m 38.5837,0 c -0.1057,0 -0.2142,0 -0.324,0.02 v 0 C 63.6217,0.0462 63.4627,0.0952 63.315,0.1674 62.8623,0.3888 62.5397,0.802 62.436,1.295 l -2.7813,13.2943 a 2.4426067,2.4426067 0 0 1 -1.7425,1.8557 l -8.5804,2.3564 c -0.9593,0.2639 -1.1958,0.8443 -1.1958,1.571 0,0.7267 0.2365,1.3055 1.1958,1.5694 l 8.5804,2.3585 a 2.4426067,2.4426067 0 0 1 1.7425,1.8552 l 2.7813,13.2932 c 0.2241,1.0668 0.8217,1.2945 1.5931,1.2945 0.7714,0 1.3708,-0.2277 1.5948,-1.2945 l 2.7796,-13.2932 a 2.4426067,2.4426067 0 0 1 1.7441,-1.8552 l 8.5788,-2.3585 c 0.9592,-0.2639 1.1953,-0.8427 1.1953,-1.5694 0,-0.7267 -0.2361,-1.3071 -1.1953,-1.571 L 70.1476,16.445 A 2.4426067,2.4426067 0 0 1 68.4035,14.5893 L 65.6239,1.295 C 65.4644,0.5337 64.8484,0.0252 64.1082,0 Z M 44.8406,26.3086 A 12.965066,12.965066 0 0 0 31.873,39.2763 12.965066,12.965066 0 0 0 44.8406,52.2378 12.965066,12.965066 0 0 0 57.8021,39.2763 12.965066,12.965066 0 0 0 44.8406,26.3086 Z m 35.7374,0.3519 a 8.8851408,8.8851408 0 0 0 -8.8868,8.8868 8.8851408,8.8851408 0 0 0 3.0711,6.7164 A 34.051239,34.051239 0 0 1 44.5378,60.8833 34.051239,34.051239 0 0 1 14.444,42.551 8.8851408,8.8851408 0 0 0 17.7694,35.6445 8.8851408,8.8851408 0 0 0 8.8873003,26.7572 8.8851408,8.8851408 0 0 0 2.6242003e-7,35.6445 8.8851408,8.8851408 0 0 0 7.4161003,44.3918 37.89415,37.89415 0 0 0 44.5378,75.085 37.89415,37.89415 0 0 0 81.6668,44.352 8.8851408,8.8851408 0 0 0 89.4607,35.5473 8.8851408,8.8851408 0 0 0 80.578,26.6605 Z" />
  </g>
</svg>
