<?xml version="1.0" encoding="UTF-8" standalone="no"?>
<!-- Created with Inkscape (http://www.inkscape.org/) -->

<svg
   width="53.57576mm"
   height="80.938293mm"
   viewBox="0 0 53.57576 80.938293"
   version="1.1"
   id="svg1"
   inkscape:version="1.3.2 (091e20ef0f, 2023-11-25)"
   sodipodi:docname="cubed guy2.svg"
   xmlns:inkscape="http://www.inkscape.org/namespaces/inkscape"
   xmlns:sodipodi="http://sodipodi.sourceforge.net/DTD/sodipodi-0.dtd"
   xmlns="http://www.w3.org/2000/svg"
   xmlns:svg="http://www.w3.org/2000/svg">
  <sodipodi:namedview
     id="namedview1"
     pagecolor="#ffffff"
     bordercolor="#000000"
     borderopacity="0.25"
     inkscape:showpageshadow="2"
     inkscape:pageopacity="0.0"
     inkscape:pagecheckerboard="0"
     inkscape:deskcolor="#d1d1d1"
     inkscape:document-units="mm"
     inkscape:zoom="0.77771465"
     inkscape:cx="397.31796"
     inkscape:cy="561.25984"
     inkscape:window-width="1876"
     inkscape:window-height="1032"
     inkscape:window-x="44"
     inkscape:window-y="0"
     inkscape:window-maximized="1"
     inkscape:current-layer="layer1" />
  <defs
     id="defs1" />
  <g
     inkscape:label="Layer 1"
     inkscape:groupmode="layer"
     id="layer1">
    <g
       id="g1056"
       transform="matrix(-1,0,0,1,-815.47306,-4680.9878)">
      <path
         id="path1039"
         style="fill:#777777;fill-opacity:1;stroke:none;stroke-width:1.26101;stroke-linecap:round;stroke-linejoin:round"
         d="m -854.50087,4750.4147 v 11.5114 h -5.84099 c -3.7478,0 -8.70696,-1.8504 -8.70696,-6.6389 0,-1.3223 0.29396,-2.9679 0.94671,-4.8725 z" />
      <path
         id="path1040"
         style="fill:#777777;fill-opacity:1;stroke:none;stroke-width:1.26101;stroke-linecap:round;stroke-linejoin:round"
         d="m -837.42839,4750.4147 v 11.5114 h -3.06131 -8.52661 v -11.5114 z" />
      <path
         id="path1041"
         style="fill:#777777;fill-opacity:1;stroke:none;stroke-width:1.26101;stroke-linecap:round;stroke-linejoin:round"
         d="m -819.42417,4750.4147 c 0.77594,1.8641 1.7826,3.6642 3.18482,5.9303 1.7121,2.767 0.46624,5.5811 -2.84995,5.5811 h -12.7739 v -11.5114 z" />
      <path
         id="path1042"
         style="fill:#777777;fill-opacity:1;stroke:none;stroke-width:1.26101;stroke-linecap:round;stroke-linejoin:round"
         d="m -821.7987,4734.1211 c 0.12699,1.6653 0.23846,3.3709 0.5457,5.0612 0.28484,1.5671 0.60402,2.8922 0.97772,4.1233 v 2.4035 h -11.58792 v -11.588 z" />
      <path
         id="path1043"
         style="fill:#777777;fill-opacity:1;stroke:none;stroke-width:1.26101;stroke-linecap:round;stroke-linejoin:round"
         d="m -837.42839,4734.1211 v 11.588 h -11.58792 v -11.588 z" />
      <path
         id="path1044"
         style="fill:#777777;fill-opacity:1;stroke:none;stroke-width:1.26101;stroke-linecap:round;stroke-linejoin:round"
         d="m -854.50087,4734.1211 v 11.588 h -11.58793 v -7.3221 c 0.19781,-1.1241 0.40616,-2.322 0.54519,-3.1088 0.0681,-0.3855 0.12109,-0.7709 0.17983,-1.1571 z" />
      <path
         id="path1045"
         style="fill:#777777;fill-opacity:1;stroke:none;stroke-width:1.26101;stroke-linecap:round;stroke-linejoin:round"
         d="m -854.50087,4717.2898 v 11.5879 h -10.86291 c 0.76985,-5.0606 0.9214,-10.0388 4.72168,-11.5879 z" />
      <path
         id="path1046"
         style="fill:#777777;fill-opacity:1;stroke:none;stroke-width:1.26101;stroke-linecap:round;stroke-linejoin:round"
         d="m -837.42839,4717.2898 v 11.5879 h -11.58792 v -11.5879 z" />
      <path
         id="path1047"
         style="fill:#777777;fill-opacity:1;stroke:none;stroke-width:1.26101;stroke-linecap:round;stroke-linejoin:round"
         d="m -823.64458,4717.2898 c -0.82856,0.4629 -1.88328,0.7344 -3.21531,0.818 4.2856,2.5207 4.73522,6.4956 5.06119,10.7699 h -10.0645 v -11.5879 z" />
      <path
         id="path1048"
         style="fill:#777777;fill-opacity:1;stroke:none;stroke-width:1.26101;stroke-linecap:round;stroke-linejoin:round"
         d="m -854.50087,4699.1353 v 13.0478 h -5.95106 c -3.26909,-0.7585 -4.75372,-5.5968 -4.75372,-12.3186 0,-0.2451 0.0167,-0.4863 0.0264,-0.7292 z" />
      <path
         id="path1049"
         style="fill:#777777;fill-opacity:1;stroke:none;stroke-width:1.26101;stroke-linecap:round;stroke-linejoin:round"
         d="m -837.42839,4699.1353 v 13.0478 h -11.58792 v -13.0478 z" />
      <path
         id="path1050"
         style="fill:#777777;fill-opacity:1;stroke:none;stroke-width:1.26101;stroke-linecap:round;stroke-linejoin:round"
         d="m -821.28865,4699.1353 c 0.48433,2.6513 0.46144,5.6097 0.13125,8.7964 -0.2046,1.9747 -0.82225,3.3731 -2.02571,4.2514 h -8.68009 v -13.0478 z" />
      <path
         id="path1053"
         style="fill:#777777;fill-opacity:1;stroke:none;stroke-width:1.26101;stroke-linecap:round;stroke-linejoin:round"
         d="m -831.8632,4682.3878 c 1.77642,0.633 3.3762,1.4692 4.88807,2.4944 3.31439,2.2474 5.00554,5.3629 5.68648,9.0904 h -10.57455 z" />
      <path
         id="path1054"
         style="fill:#777777;fill-opacity:1;stroke:none;stroke-width:1.26101;stroke-linecap:round;stroke-linejoin:round"
         d="m -846.25989,4680.9889 c 3.47364,0.021 6.32893,0.5071 8.8315,1.3989 v 11.5848 h -11.58792 v -12.9051 c 0.0331,0 0.0639,-0.01 0.0971,-0.011 0.92578,-0.051 1.81078,-0.073 2.65927,-0.068 z" />
      <path
         id="path1055"
         style="fill:#777777;fill-opacity:1;stroke:none;stroke-width:1.26101;stroke-linecap:round;stroke-linejoin:round"
         d="m -854.50087,4681.0675 v 12.9051 h -10.67842 c 0.26774,-6.7099 4.20387,-12.4937 10.67842,-12.9051 z" />
    </g>
  </g>
</svg>
