<?xml version="1.0" encoding="UTF-8" standalone="no"?>
<!-- Created with Inkscape (http://www.inkscape.org/) -->

<svg
   width="115.72942mm"
   height="105.81313mm"
   viewBox="0 0 115.72942 105.81313"
   version="1.1"
   id="svg1"
   inkscape:version="1.3.1 (91b66b0783, 2023-11-16)"
   sodipodi:docname="dog_altruism.svg"
   xmlns:inkscape="http://www.inkscape.org/namespaces/inkscape"
   xmlns:sodipodi="http://sodipodi.sourceforge.net/DTD/sodipodi-0.dtd"
   xmlns="http://www.w3.org/2000/svg"
   xmlns:svg="http://www.w3.org/2000/svg">
  <sodipodi:namedview
     id="namedview1"
     pagecolor="#ffffff"
     bordercolor="#000000"
     borderopacity="0.25"
     inkscape:showpageshadow="2"
     inkscape:pageopacity="0.0"
     inkscape:pagecheckerboard="0"
     inkscape:deskcolor="#d1d1d1"
     inkscape:document-units="mm"
     inkscape:zoom="0.77771465"
     inkscape:cx="258.44955"
     inkscape:cy="391.53178"
     inkscape:window-width="1876"
     inkscape:window-height="1032"
     inkscape:window-x="44"
     inkscape:window-y="0"
     inkscape:window-maximized="1"
     inkscape:current-layer="layer1" />
  <defs
     id="defs1" />
  <g
     inkscape:label="Layer 1"
     inkscape:groupmode="layer"
     id="layer1"
     transform="translate(4.9335482e-6,2.9904637e-5)">
    <g
       transform="translate(1.9506645e-4,-2.9904637e-5)"
       id="g106">
      <g
         inkscape:groupmode="layer"
         id="g105"
         inkscape:label="Layer 1"
         transform="translate(4.9335482e-6,2.9904637e-5)">
        <g
           id="g99"
           transform="translate(-869.77201,-3665.1707)">
          <path
             d="m 958.5083,3717.7369 0.58332,11.8671"
             id="path93"
             style="fill:#4e4e4e;fill-opacity:1;stroke:#b8b8b8;stroke-width:5.6;stroke-linecap:round;stroke-linejoin:round;stroke-dasharray:none;stroke-opacity:1" />
          <path
             d="m 929.77781,3673.4678 1.20808,10.964"
             id="path94"
             sodipodi:nodetypes="cc"
             style="fill:#4e4e4e;fill-opacity:1;stroke:#b8b8b8;stroke-width:5.6;stroke-linecap:round;stroke-linejoin:round;stroke-dasharray:none;stroke-opacity:1" />
          <path
             d="m 906.58837,3680.4327 1.54487,9.9879"
             id="path95"
             sodipodi:nodetypes="cc"
             style="fill:#4e4e4e;fill-opacity:1;stroke:#b8b8b8;stroke-width:5.6;stroke-linecap:round;stroke-linejoin:round;stroke-dasharray:none;stroke-opacity:1" />
          <path
             d="m 928.46363,3768.1545 c 3.80551,-4.7476 6.55519,-7.9913 6.55519,-7.9913 l 9.52619,1.9441 c 0,0 -3.635,-9.6914 -2.78556,-9.8504 0.84941,-0.1592 9.11247,-1.0992 9.11247,-1.0992 l -3.84642,-8.0641 6.90591,-2.0814 -5.11741,-6.8281 1.20288,-3.5455 c 0.44672,3.5511 1.51162,4.7824 3.05602,6.3734 3.15526,3.2504 9.83572,3.5907 13.38143,-0.4503 2.34974,-2.678 1.82411,-7.0206 2.28775,-9.5603 3.34083,0.1597 5.99361,0.3165 8.70431,0.4738 3.3908,0.1968 2.9535,-6.8066 2.9535,-6.8066 l -11.67958,-0.961 c -1.92987,-3.8867 -8.03038,-6.5466 -13.76301,-5.42 0,0 1.03191,-3.7648 7.69202,-5.3556 7.06156,-1.6867 15.24537,-3.6093 18.01597,-8.1746 3.2498,-5.3549 2.6697,-20.4692 -3.1498,-16.6117 -5.07384,3.3633 -16.26091,6.045 -24.46617,7.448 -6.31982,1.0805 -12.18881,-9.5794 -18.44933,-8.1861 l -5.59419,-15.4081 -7.29422,16.5063 -9.92456,4.2358 -7.10838,-13.8796 c 0,0 -4.31654,13.9581 -7.6857,20.4513 -3.09842,5.9713 -6.20984,11.4625 -11.20971,16.5829 -4.78026,4.8954 -8.86352,8.9525 -13.18212,12.4245"
             id="path96"
             sodipodi:nodetypes="cccscccccsscscccsssscccccssc"
             style="fill:none;fill-opacity:1;stroke:#4e4e4e;stroke-width:5.65861;stroke-linecap:round;stroke-linejoin:round;stroke-dasharray:none;stroke-opacity:1" />
          <path
             inkscape:connector-curvature="0"
             d="m 904.49395,3700.5516 c -0.61633,0 -1.20906,0.072 -1.71393,0.191 -3.54061,0.9788 -6.15346,4.4636 -4.69525,9.5819 1.0976,3.8471 5.54894,5.6375 7.67004,7.0584 1.05103,0.7008 2.38992,1.8912 2.74332,3.3444 h 0.0721 0.14424 0.0721 c 0.35406,-1.4532 1.69426,-2.6409 2.74398,-3.3444 2.12111,-1.4209 6.57311,-3.2113 7.67004,-7.0584 1.45821,-5.1183 -1.15463,-8.6031 -4.6946,-9.5819 -1.79195,-0.5007 -4.67428,0 -5.84399,1.3326 -0.84122,-0.9611 -2.56236,-1.4854 -4.13138,-1.5204 z"
             id="path97"
             style="fill:#4e4e4e;fill-opacity:1;stroke:#4b4b4b;stroke-width:0.113466;stroke-linecap:round;stroke-linejoin:round;stroke-miterlimit:4;stroke-dasharray:none;stroke-dashoffset:0;stroke-opacity:1" />
          <path
             inkscape:connector-curvature="0"
             d="m 926.92456,3690.4311 c -0.61633,0 -1.20905,0.072 -1.71392,0.191 -3.54062,0.9788 -6.15347,4.4636 -4.69526,9.5819 1.0976,3.8471 5.54895,5.6375 7.67004,7.0583 1.05103,0.7009 2.38992,1.8912 2.74332,3.3445 h 0.0721 0.14425 0.0721 c 0.35406,-1.4533 1.69427,-2.6409 2.74398,-3.3445 2.12111,-1.4208 6.57311,-3.2112 7.67004,-7.0583 1.45821,-5.1183 -1.15463,-8.6031 -4.6946,-9.5819 -1.79195,-0.5007 -4.67428,0 -5.84399,1.3326 -0.84122,-0.9611 -2.56236,-1.4855 -4.13138,-1.5204 z"
             id="path98"
             style="fill:#4e4e4e;fill-opacity:1;stroke:#4b4b4b;stroke-width:0.113466;stroke-linecap:round;stroke-linejoin:round;stroke-miterlimit:4;stroke-dasharray:none;stroke-dashoffset:0;stroke-opacity:1" />
          <path
             d="m 972.47172,3687.1592 c 0,0 -0.0495,6.1431 3.78597,5.6617 l 4.86886,-1.0502 c 1.2743,-2.2095 -9.96764,-6.0823 -8.65483,-4.6115 z"
             id="path99"
             sodipodi:nodetypes="cccc"
             style="fill:none;fill-opacity:1;stroke:#4e4e4e;stroke-width:5.60001;stroke-linecap:round;stroke-linejoin:round;stroke-dasharray:none;stroke-opacity:1" />
        </g>
        <circle
           style="fill:#b8b8b8;fill-opacity:1;stroke:none;stroke-width:8.14787;stroke-linecap:round;stroke-linejoin:round;stroke-opacity:1"
           id="circle99"
           cx="61.345066"
           cy="58.253632"
           r="2.3851967" />
        <circle
           style="fill:#b8b8b8;fill-opacity:1;stroke:none;stroke-width:8.14787;stroke-linecap:round;stroke-linejoin:round;stroke-opacity:1"
           id="circle100"
           cx="38.75148"
           cy="69.107666"
           r="2.3851967" />
        <circle
           style="fill:#b8b8b8;fill-opacity:1;stroke:none;stroke-width:8.14787;stroke-linecap:round;stroke-linejoin:round;stroke-opacity:1"
           id="circle101"
           cx="16.330427"
           cy="58.253632"
           r="2.3851967" />
        <circle
           style="fill:#b8b8b8;fill-opacity:1;stroke:none;stroke-width:8.14787;stroke-linecap:round;stroke-linejoin:round;stroke-opacity:1"
           id="circle102"
           cx="61.345066"
           cy="79.536079"
           r="2.3851967" />
        <circle
           style="fill:#b8b8b8;fill-opacity:1;stroke:none;stroke-width:8.14787;stroke-linecap:round;stroke-linejoin:round;stroke-opacity:1"
           id="circle103"
           cx="38.75148"
           cy="90.390114"
           r="2.3851967" />
        <circle
           style="fill:#b8b8b8;fill-opacity:1;stroke:none;stroke-width:8.14787;stroke-linecap:round;stroke-linejoin:round;stroke-opacity:1"
           id="circle104"
           cx="16.330427"
           cy="79.536079"
           r="2.3851967" />
        <circle
           style="fill:#b8b8b8;fill-opacity:1;stroke:none;stroke-width:8.14787;stroke-linecap:round;stroke-linejoin:round;stroke-opacity:1"
           id="circle105"
           cx="83.809875"
           cy="32.857357"
           r="2.3851967" />
      </g>
    </g>
  </g>
</svg>
