<?xml version="1.0" encoding="UTF-8" standalone="no"?>
<!-- Created with Inkscape (http://www.inkscape.org/) -->

<svg
   width="70.172668mm"
   height="65.596901mm"
   viewBox="0 0 70.172668 65.596901"
   version="1.1"
   id="svg1"
   inkscape:version="1.3.2 (091e20ef0f, 2023-11-25)"
   sodipodi:docname="grouping2.svg"
   xmlns:inkscape="http://www.inkscape.org/namespaces/inkscape"
   xmlns:sodipodi="http://sodipodi.sourceforge.net/DTD/sodipodi-0.dtd"
   xmlns="http://www.w3.org/2000/svg"
   xmlns:svg="http://www.w3.org/2000/svg">
  <sodipodi:namedview
     id="namedview1"
     pagecolor="#ffffff"
     bordercolor="#000000"
     borderopacity="0.25"
     inkscape:showpageshadow="2"
     inkscape:pageopacity="0.0"
     inkscape:pagecheckerboard="0"
     inkscape:deskcolor="#d1d1d1"
     inkscape:document-units="mm"
     inkscape:zoom="1"
     inkscape:cx="72"
     inkscape:cy="126"
     inkscape:window-width="1896"
     inkscape:window-height="1052"
     inkscape:window-x="24"
     inkscape:window-y="0"
     inkscape:window-maximized="1"
     inkscape:current-layer="layer1" />
  <defs
     id="defs1" />
  <g
     inkscape:label="Layer 1"
     inkscape:groupmode="layer"
     id="layer1">
    <path
       id="path20526"
       style="fill:none;stroke:#d1d1d1;stroke-width:4.59999982;stroke-linecap:round;stroke-linejoin:round;opacity:1;stroke-opacity:1;stroke-dasharray:none"
       d="m 18.0656,1.0001 c -0.0796,0 -0.15788,0.005 -0.23719,0.006 -0.14582,0.002 -0.29124,0.005 -0.43718,0.0109 -0.42017,0.0164 -0.83667,0.0473 -1.24851,0.0935 -0.13285,0.015 -0.26518,0.0325 -0.3979,0.0506 -0.43632,0.0594 -0.86777,0.13362 -1.29295,0.22531 -0.10398,0.0225 -0.20733,0.0473 -0.31109,0.0718 -0.4598,0.10827 -0.91241,0.23416 -1.35702,0.37879 -0.0719,0.0234 -0.14331,0.0479 -0.21498,0.0724 -0.47803,0.16261 -0.94665,0.3455 -1.40456,0.54828 -0.0834,0.037 -0.16651,0.0747 -0.2496,0.11317 -0.15685,0.0725 -0.31241,0.14667 -0.46664,0.22376 -0.0973,0.0487 -0.19417,0.0987 -0.29094,0.14935 -0.15063,0.0789 -0.30009,0.1596 -0.44803,0.24288 -0.0592,0.0332 -0.11935,0.0631 -0.17828,0.0971 C 9.47693,3.31504 9.42594,3.34904 9.3726,3.38054 9.25527,3.45014 9.13927,3.52165 9.02378,3.59397 8.88606,3.67987 8.74947,3.76673 8.61502,3.85597 8.53562,3.90887 8.45729,3.96301 8.37886,4.0172 8.24079,4.1122 8.10509,4.20918 7.97061,4.30762 7.60733,4.57464 7.25646,4.85719 6.9159,5.1515 6.81585,5.2377 6.71436,5.3222 6.61669,5.41039 6.30818,5.68967 6.01315,5.98284 5.72579,6.28373 5.6142,6.40051 5.50188,6.51611 5.39403,6.63564 5.12581,6.93282 4.87109,7.24197 4.62405,7.55755 4.53375,7.67315 4.44189,7.78718 4.35481,7.90482 4.09661,8.25268 3.85369,8.6122 3.62204,8.97969 c -0.0468,0.0746 -0.097,0.14699 -0.14262,0.2222 -0.25828,0.42415 -0.49601,0.8621 -0.71727,1.30948 -0.0159,0.0324 -0.0339,0.0637 -0.0496,0.0961 -0.22993,0.47247 -0.43686,0.95803 -0.62322,1.45366 -0.005,0.0125 -0.01,0.0247 -0.0145,0.0372 -0.18451,0.49423 -0.34543,0.99941 -0.48421,1.51412 -0.005,0.0175 -0.0103,0.0347 -0.015,0.0522 -0.12861,0.48314 -0.23465,0.97534 -0.32092,1.47433 -0.0103,0.059 -0.0218,0.11759 -0.0315,0.17673 C 1.15,15.76768 1.09689,16.22614 1.0599,16.68927 1.0509,16.8018 1.041,16.91394 1.0341,17.02672 1.0135,17.3705 1,17.71644 1,18.06542 c 0,0.079 0.005,0.15684 0.006,0.23564 0.002,0.14447 0.005,0.28846 0.0109,0.43305 0.0164,0.42381 0.0473,0.8435 0.094,1.25884 0.0143,0.1263 0.0309,0.25208 0.0481,0.37827 0.0598,0.44221 0.13544,0.87921 0.22841,1.31 0.0216,0.0993 0.0453,0.19803 0.0687,0.29714 0.10951,0.46652 0.23704,0.92576 0.38396,1.37666 0.021,0.0641 0.0428,0.12779 0.0646,0.19171 0.16639,0.49064 0.35359,0.97129 0.56224,1.44074 0.0254,0.057 0.0515,0.11369 0.0775,0.17054 0.0884,0.19315 0.1801,0.3844 0.27543,0.5736 0.0316,0.0626 0.0632,0.12522 0.0956,0.18759 0.10098,0.1944 0.20603,0.38626 0.31419,0.57619 0.019,0.0334 0.0356,0.0675 0.0548,0.10077 L 20.3051,56.07705 c 0.0581,0.10058 0.12108,0.19664 0.18087,0.29559 0.0385,0.0638 0.0769,0.12734 0.11627,0.19068 0.24161,0.38845 0.49857,0.76112 0.76585,1.12345 0.16815,0.22774 0.35209,0.44457 0.53226,0.66456 0.18295,0.22366 0.36193,0.45112 0.55449,0.66352 0.15121,0.16648 0.31539,0.32263 0.47387,0.4837 0.24331,0.24768 0.48543,0.49595 0.74156,0.72657 0.13146,0.11814 0.27302,0.22706 0.40876,0.34158 0.30057,0.25393 0.60281,0.50433 0.91829,0.73535 0.31708,0.232 0.64284,0.45567 0.97979,0.66818 0.12438,0.0784 0.24951,0.15443 0.37568,0.22944 0.0682,0.0406 0.1336,0.0842 0.20258,0.12403 0.30439,0.17574 0.61263,0.33802 0.92294,0.49299 0.0937,0.0466 0.18816,0.0906 0.28267,0.13539 0.26883,0.12818 0.54196,0.23638 0.81442,0.34933 0.27264,0.1124 0.5449,0.22334 0.82269,0.32143 0.28004,0.0994 0.5617,0.18575 0.84439,0.26975 0.23536,0.0697 0.47036,0.13789 0.70848,0.19741 0.30722,0.077 0.61489,0.14225 0.92398,0.20153 0.23271,0.0447 0.46516,0.0869 0.6997,0.12196 0.30379,0.0452 0.60716,0.0795 0.91157,0.108 0.25169,0.0239 0.50311,0.0441 0.75603,0.0568 0.28201,0.0138 0.56286,0.0189 0.84439,0.0186 0.28135,2.5e-4 0.56204,-0.005 0.84387,-0.0186 0.25292,-0.0127 0.50434,-0.0329 0.75603,-0.0568 0.30441,-0.0285 0.60778,-0.0628 0.91157,-0.108 0.23454,-0.0351 0.46699,-0.0772 0.6997,-0.12196 0.30909,-0.0593 0.61676,-0.12458 0.92398,-0.20153 0.23812,-0.0595 0.47312,-0.12774 0.70848,-0.19741 0.28269,-0.084 0.56435,-0.17032 0.84439,-0.26975 0.27779,-0.0981 0.55005,-0.20903 0.82269,-0.32143 0.27246,-0.11295 0.54559,-0.22115 0.81442,-0.34933 0.0945,-0.0448 0.18894,-0.0888 0.28267,-0.13539 0.31031,-0.15497 0.61855,-0.31725 0.92294,-0.49299 0.069,-0.0398 0.13437,-0.0834 0.20258,-0.12403 0.12617,-0.075 0.2513,-0.15106 0.37568,-0.22944 0.33695,-0.21251 0.66271,-0.43618 0.97979,-0.66818 0.31548,-0.23102 0.61772,-0.48142 0.91829,-0.73535 0.13574,-0.11452 0.2773,-0.22344 0.40876,-0.34158 0.25613,-0.23062 0.49825,-0.47889 0.74156,-0.72657 0.15848,-0.16107 0.32266,-0.31722 0.47387,-0.4837 0.19256,-0.2124 0.37154,-0.43986 0.55449,-0.66352 0.18017,-0.21999 0.36411,-0.43682 0.53226,-0.66456 0.26728,-0.36233 0.52423,-0.735 0.76585,-1.12345 0.0394,-0.0633 0.0778,-0.12687 0.11627,-0.19068 0.0598,-0.099 0.1228,-0.19501 0.18087,-0.29559 L 66.8883,26.59616 c 0.0192,-0.0333 0.0358,-0.0674 0.0548,-0.10077 0.10707,-0.18801 0.21053,-0.37811 0.31058,-0.57051 0.0353,-0.0678 0.0701,-0.13555 0.10438,-0.2036 0.0917,-0.18226 0.17984,-0.36649 0.2651,-0.55242 0.0282,-0.0615 0.0563,-0.12283 0.0837,-0.18449 0.20812,-0.46848 0.39518,-0.94806 0.56121,-1.43764 0.0218,-0.0639 0.0436,-0.12765 0.0646,-0.19171 0.14692,-0.4509 0.27445,-0.91014 0.38396,-1.37666 0.0234,-0.0991 0.0472,-0.19784 0.0687,-0.29714 0.0922,-0.42727 0.16678,-0.86064 0.22634,-1.29915 0.0182,-0.13309 0.0356,-0.26573 0.0506,-0.39894 0.0461,-0.41213 0.0773,-0.82855 0.0935,-1.24902 0.006,-0.14459 0.009,-0.28858 0.0109,-0.43305 0.001,-0.0788 0.006,-0.15659 0.006,-0.23564 0,-0.34845 -0.0135,-0.69388 -0.0341,-1.03715 -0.007,-0.11556 -0.0174,-0.23042 -0.0269,-0.34572 -0.0368,-0.45834 -0.0889,-0.9122 -0.16123,-1.3596 -0.0105,-0.0643 -0.0234,-0.12803 -0.0346,-0.19224 -0.086,-0.49613 -0.19096,-0.98561 -0.31885,-1.46606 -0.005,-0.0175 -0.0103,-0.0347 -0.015,-0.0522 -0.13878,-0.51471 -0.2997,-1.01989 -0.48421,-1.51412 -0.005,-0.0125 -0.01,-0.0247 -0.0145,-0.0372 -0.18563,-0.49367 -0.3923,-0.97728 -0.62115,-1.44797 -0.0185,-0.0382 -0.0391,-0.0752 -0.0579,-0.11317 C 67.18454,10.0566 66.94924,9.6224 66.69316,9.20187 66.64756,9.12667 66.59736,9.05423 66.55054,8.97967 66.31889,8.61218 66.07597,8.25266 65.81777,7.9048 65.73067,7.78716 65.63882,7.67313 65.54853,7.55753 65.30148,7.24195 65.04677,6.9328 64.77855,6.63562 64.66941,6.51465 64.55563,6.39773 64.44266,6.27957 64.1565,5.98015 63.863,5.68838 63.55589,5.41037 63.45819,5.32217 63.35673,5.23767 63.25668,5.15148 62.91612,4.85717 62.56525,4.57462 62.20197,4.3076 62.06749,4.2092 61.93179,4.11217 61.79372,4.01718 61.71532,3.96298 61.63694,3.90885 61.55756,3.85595 61.42418,3.76745 61.2885,3.68129 61.1519,3.59601 61.03303,3.52151 60.91357,3.44799 60.79275,3.37639 60.74165,3.34619 60.69285,3.31359 60.64134,3.28389 60.58474,3.25129 60.52705,3.22279 60.47029,3.19089 60.31957,3.10599 60.1675,3.02328 60.01399,2.94284 59.91769,2.89244 59.8214,2.84294 59.7246,2.79453 59.57124,2.71783 59.41649,2.64394 59.26054,2.57181 59.17574,2.53251 59.09092,2.49431 59.00578,2.45657 58.54858,2.25418 58.08105,2.07166 57.6038,1.90932 57.5323,1.88492 57.46102,1.86032 57.38934,1.83692 56.94413,1.69208 56.49069,1.56599 56.03025,1.45761 55.92703,1.43321 55.82415,1.40871 55.72071,1.38631 55.29546,1.29461 54.86416,1.22038 54.42776,1.161 54.29468,1.1428 54.16204,1.1254 54.02882,1.1104 53.61719,1.0642 53.20131,1.0332 52.78135,1.0169 52.63541,1.0109 52.48999,1.0079 52.34417,1.006 52.26487,1.005 52.18655,1 52.10697,1 Z" />
  </g>
</svg>
