<?xml version="1.0" encoding="UTF-8" standalone="no"?>
<!-- Created with Inkscape (http://www.inkscape.org/) -->

<svg
   width="40.418873mm"
   height="65.888443mm"
   viewBox="0 0 40.418873 65.888443"
   version="1.1"
   id="svg1"
   inkscape:version="1.3.2 (091e20ef0f, 2023-11-25)"
   sodipodi:docname="guy2_mage_mad.svg"
   xmlns:inkscape="http://www.inkscape.org/namespaces/inkscape"
   xmlns:sodipodi="http://sodipodi.sourceforge.net/DTD/sodipodi-0.dtd"
   xmlns="http://www.w3.org/2000/svg"
   xmlns:svg="http://www.w3.org/2000/svg">
  <sodipodi:namedview
     id="namedview1"
     pagecolor="#ffffff"
     bordercolor="#000000"
     borderopacity="0.25"
     inkscape:showpageshadow="2"
     inkscape:pageopacity="0.0"
     inkscape:pagecheckerboard="0"
     inkscape:deskcolor="#d1d1d1"
     inkscape:document-units="mm"
     inkscape:zoom="1.3154143"
     inkscape:cx="-203.35799"
     inkscape:cy="128.85674"
     inkscape:window-width="1876"
     inkscape:window-height="1032"
     inkscape:window-x="44"
     inkscape:window-y="0"
     inkscape:window-maximized="1"
     inkscape:current-layer="layer1" />
  <defs
     id="defs1" />
  <g
     inkscape:label="Layer 1"
     inkscape:groupmode="layer"
     id="layer1">
    <g
       id="g3"
       transform="translate(-16.393927,-21.696467)">
      <path
         style="fill:#3f3f3f;fill-opacity:1;stroke:none;stroke-width:1.26101;stroke-linecap:round;stroke-linejoin:round"
         d="m 17.2106,65.1523 c 1.1113,-2.9795 2.1472,-5.0268 2.54,-7.3645 0.5847,-3.4795 -0.3243,-5.4448 5.631,-8.9474 -3.7597,-0.2361 -5.3476,-1.9365 -5.7026,-5.3629 -0.7944,-7.6669 0.1457,-14.0411 5.8175,-17.8869 4.1621,-2.8222 8.9729,-4.2316 16.3793,-3.8254 6.7689,0.3711 10.8018,6.5944 10.8018,13.645 0,6.979 -1.5946,11.9411 -5.1315,12.4001 5.2584,2.0035 9.2667,8.3642 9.2667,19.2433 0,5.5264 -2.3144,12.2677 -8.1259,16.4608 -7.8893,5.692 -17.9104,5.2941 -25.4166,-0.4403 -7.2779,-5.56 -7.7602,-13.3631 -6.0597,-17.9218 z"
         id="path892"
         sodipodi:nodetypes="sscsssscssss" />
      <path
         id="path894"
         style="fill:#cbcbcb;stroke-width:1.45281;stroke-linecap:round;stroke-linejoin:round"
         inkscape:transform-center-x="-4.0303918e-05"
         inkscape:transform-center-y="-9.2244505e-05"
         transform="matrix(0.41989653,0,0,1.128337,845.3884,-4829.7496)"
         d="m -1922.4066,4315.5908 c -0.8897,0.8897 -5.1016,0.8897 -5.9912,0 -0.8897,-0.8896 -0.8175,-5.092 0,-5.9912 1.1369,0.6245 4.1292,0.8864 5.9912,0.7326 0.5857,0.9239 0.8897,4.369 0,5.2586 z"
         sodipodi:nodetypes="ccccc" />
      <path
         id="path3"
         style="fill:#cbcbcb;stroke-width:0.999999;stroke-linecap:round;stroke-linejoin:round"
         inkscape:transform-center-x="3.9888696e-05"
         inkscape:transform-center-y="-9.2244505e-05"
         d="m 42.588528,39.691176 c 0.373582,1.003882 2.142144,1.003882 2.515684,0 0.373582,-1.003768 0.343265,-5.745492 0,-6.760092 -0.235226,-0.695281 -2.324841,0.01805 -2.515684,0.82662 -0.245933,1.04247 -0.373582,4.929704 0,5.933472 z"
         sodipodi:nodetypes="ccssc" />
    </g>
    <path
       style="fill:#3f3f3f;fill-opacity:1;stroke:none;stroke-width:1.26101;stroke-linecap:round;stroke-linejoin:round"
       d="m 0.816673,43.455833 c 1.1113,-2.9795 2.1472,-5.0268 2.54,-7.3645 0.5847,-3.4795 -0.3243,-5.4448 5.631,-8.9474 -3.7597,-0.2361 -5.3476,-1.9365 -5.7026,-5.3629 -0.7944,-7.6669 0.1457,-14.0411 5.8175,-17.8869 4.1621,-2.8222 8.9729,-4.2316 16.3793,-3.8254 6.7689,0.3711 10.8018,6.5944 10.8018,13.645 0,6.979 -1.5946,11.9411 -5.1315,12.4001 5.2584,2.0035 9.2667,8.3642 9.2667,19.2433 0,5.5264 -2.3144,12.2677 -8.1259,16.4608 -7.8893,5.692 -17.9104,5.2941 -25.4166,-0.4403 -7.2779,-5.56 -7.7602,-13.3631 -6.0597,-17.9218 z"
       id="path4"
       sodipodi:nodetypes="sscsssscssss" />
    <path
       id="path5"
       style="fill:#cbcbcb;stroke-width:0.999999;stroke-linecap:round;stroke-linejoin:round"
       inkscape:transform-center-x="-4.0303918e-05"
       inkscape:transform-center-y="-9.2244505e-05"
       d="m 21.782609,17.994676 c -0.373582,1.003882 -2.142144,1.003882 -2.515684,0 -0.373582,-1.003768 -0.343265,-5.745492 0,-6.760092 0.477381,0.704646 1.733837,1.000158 2.515684,0.82662 0.245934,1.04247 0.373582,4.929704 0,5.933472 z"
       sodipodi:nodetypes="ccccc" />
    <path
       id="path7"
       style="fill:#cbcbcb;stroke-width:0.999999;stroke-linecap:round;stroke-linejoin:round"
       inkscape:transform-center-x="4.0222849e-05"
       inkscape:transform-center-y="-9.2244505e-05"
       d="m 26.307716,17.994676 c 0.373582,1.003882 2.142144,1.003882 2.515684,0 0.373582,-1.003768 0.343265,-5.745492 0,-6.760092 -0.477381,0.704646 -1.733837,1.000158 -2.515684,0.82662 -0.245934,1.04247 -0.373582,4.929704 0,5.933472 z"
       sodipodi:nodetypes="ccccc" />
  </g>
</svg>
