<?xml version="1.0" encoding="UTF-8" standalone="no"?>
<!-- Created with Inkscape (http://www.inkscape.org/) -->

<svg
   width="85.207825mm"
   height="140.47223mm"
   viewBox="0 0 85.207825 140.47223"
   version="1.1"
   id="svg1"
   inkscape:version="1.3.2 (091e20ef0f, 2023-11-25)"
   sodipodi:docname="hand.svg"
   xmlns:inkscape="http://www.inkscape.org/namespaces/inkscape"
   xmlns:sodipodi="http://sodipodi.sourceforge.net/DTD/sodipodi-0.dtd"
   xmlns="http://www.w3.org/2000/svg"
   xmlns:svg="http://www.w3.org/2000/svg">
  <sodipodi:namedview
     id="namedview1"
     pagecolor="#ffffff"
     bordercolor="#000000"
     borderopacity="0.25"
     inkscape:showpageshadow="2"
     inkscape:pageopacity="0.0"
     inkscape:pagecheckerboard="0"
     inkscape:deskcolor="#d1d1d1"
     inkscape:document-units="mm"
     inkscape:zoom="0.77147868"
     inkscape:cx="396.6409"
     inkscape:cy="561.25984"
     inkscape:window-width="1896"
     inkscape:window-height="1052"
     inkscape:window-x="24"
     inkscape:window-y="0"
     inkscape:window-maximized="1"
     inkscape:current-layer="layer1" />
  <defs
     id="defs1" />
  <g
     inkscape:label="Layer 1"
     inkscape:groupmode="layer"
     id="layer1">
    <path
       inkscape:connector-curvature="0"
       id="path3871"
       d="m 45.358191,0.00882368 a 7.0450793,7.0450793 0 0 0 -6.9349,7.14500002 V 63.272724 c -0.7896,-0.1 -1.5119,-0.154 -2.2561,-0.231 v -46.9859 a 7.0450793,7.0450793 0 0 0 -7.1504,-7.1440003 7.0450793,7.0450793 0 0 0 -6.9367,7.1440003 v 48.1439 l -1.3132,12.423 -2.9094,8.933 -0.2171,-2.748 a 7.0450793,7.0450793 0 0 0 0,-0.135 l -1.1735,-11.809 a 7.0450793,7.0450793 0 0 0 -0.084,-0.539 l -2.3874,-13.412 a 7.0450793,7.0450793 0 0 0 -6.8912005,-5.908 7.0450793,7.0450793 0 0 0 -6.97699996,8.378 l 2.33689996,13.144 1.1381,11.464 1.1348,14.368 a 7.0450793,7.0450793 0 0 0 0.3906,1.790996 v 0 c 2.5322,11.074 3.0137,16.936 11.4454005,27.774 10.1356,13.027 39.8974,18.789 57.3484,2.993 4.2293,-3.829 8.9469,-8.759 9.9369,-16.19 1.2021,-9.015 1.3789,-19.430996 1.3435,-26.811996 a 7.0450793,7.0450793 0 0 0 0,-0.578 v -47.365 a 7.0450793,7.0450793 0 0 0 -7.1504,-7.141 7.0450793,7.0450793 0 0 0 -6.9366,7.141 v 31.817 c -0.7543,-0.314 -1.5086,-0.657 -2.2595,-0.955 v -52.2189 a 7.0450793,7.0450793 0 0 0 -7.1471,-7.144 7.0450793,7.0450793 0 0 0 -6.9366,7.144 v 47.6909 c -0.7509,-0.192 -1.517,-0.397 -2.2544,-0.571 V 7.1448237 a 7.0450793,7.0450793 0 0 0 -7.1521,-7.14400002242 z"
       style="color:#000000;font-style:normal;font-variant:normal;font-weight:normal;font-stretch:normal;font-size:medium;line-height:normal;font-family:sans-serif;font-variant-ligatures:normal;font-variant-position:normal;font-variant-caps:normal;font-variant-numeric:normal;font-variant-alternates:normal;font-feature-settings:normal;text-indent:0;text-align:start;text-decoration:none;text-decoration-line:none;text-decoration-style:solid;text-decoration-color:#000000;letter-spacing:normal;word-spacing:normal;text-transform:none;writing-mode:lr-tb;direction:ltr;text-orientation:mixed;dominant-baseline:auto;baseline-shift:baseline;text-anchor:start;white-space:normal;shape-padding:0;clip-rule:nonzero;display:inline;overflow:visible;visibility:visible;isolation:auto;mix-blend-mode:normal;color-interpolation:sRGB;color-interpolation-filters:linearRGB;solid-color:#000000;solid-opacity:1;vector-effect:none;fill:#4e4e4e;fill-opacity:1;fill-rule:evenodd;stroke:none;stroke-width:6.78654;stroke-linecap:round;stroke-linejoin:round;stroke-miterlimit:4;stroke-dasharray:none;stroke-dashoffset:0;stroke-opacity:1;marker:none;color-rendering:auto;image-rendering:auto;shape-rendering:auto;text-rendering:auto;enable-background:accumulate" />
  </g>
</svg>
