<?xml version="1.0" encoding="UTF-8" standalone="no"?>
<!-- Created with Inkscape (http://www.inkscape.org/) -->

<svg
   width="123.5305mm"
   height="113.6521mm"
   viewBox="0 0 123.5305 113.6521"
   version="1.1"
   id="svg1"
   inkscape:version="1.3.2 (091e20ef0f, 2023-11-25)"
   sodipodi:docname="heart.svg"
   xmlns:inkscape="http://www.inkscape.org/namespaces/inkscape"
   xmlns:sodipodi="http://sodipodi.sourceforge.net/DTD/sodipodi-0.dtd"
   xmlns="http://www.w3.org/2000/svg"
   xmlns:svg="http://www.w3.org/2000/svg">
  <sodipodi:namedview
     id="namedview1"
     pagecolor="#ffffff"
     bordercolor="#000000"
     borderopacity="0.25"
     inkscape:showpageshadow="2"
     inkscape:pageopacity="0.0"
     inkscape:pagecheckerboard="0"
     inkscape:deskcolor="#d1d1d1"
     inkscape:document-units="mm"
     inkscape:zoom="0.77147868"
     inkscape:cx="287.75909"
     inkscape:cy="403.12197"
     inkscape:window-width="1896"
     inkscape:window-height="1052"
     inkscape:window-x="24"
     inkscape:window-y="0"
     inkscape:window-maximized="1"
     inkscape:current-layer="layer1" />
  <defs
     id="defs1" />
  <g
     inkscape:label="Layer 1"
     inkscape:groupmode="layer"
     id="layer1">
    <path
       inkscape:connector-curvature="0"
       d="m 38.52512,0.31779599 c -3.4515,0 -6.7717,0.4032 -9.6002,1.06980001 -19.8334003,5.4829 -34.4693003,25.0035 -26.3002003,53.6741 6.1486,21.55 31.0818003,31.5792 42.9633003,39.5379 5.8877,3.9261 13.3883,10.593704 15.3683,18.734704 h 0.4024 0.8081 0.4041 c 1.9833,-8.141 9.489,-14.793404 15.37,-18.734704 11.8815,-7.9587 36.8197,-17.9879 42.965,-39.5379 8.1691,-28.6706 -6.4686,-48.1912 -26.2969,-53.6741 -10.0396,-2.8046 -26.1841,0 -32.7368,7.4648 -4.7125,-5.3837 -14.3531,-8.32130001 -23.1417,-8.51680001 z"
       id="path3813"
       style="fill:#4e4e4e;fill-opacity:1;stroke:#4b4b4b;stroke-width:0.635592;stroke-linecap:round;stroke-linejoin:round;stroke-miterlimit:4;stroke-dasharray:none;stroke-dashoffset:0;stroke-opacity:1" />
  </g>
</svg>
