<?xml version="1.0" encoding="UTF-8" standalone="no"?>
<!-- Created with Inkscape (http://www.inkscape.org/) -->

<svg
   width="84.035934mm"
   height="80.647202mm"
   viewBox="0 0 84.035934 80.647202"
   version="1.1"
   id="svg1"
   inkscape:version="1.3.1 (91b66b0783, 2023-11-16)"
   sodipodi:docname="kill.svg"
   xmlns:inkscape="http://www.inkscape.org/namespaces/inkscape"
   xmlns:sodipodi="http://sodipodi.sourceforge.net/DTD/sodipodi-0.dtd"
   xmlns="http://www.w3.org/2000/svg"
   xmlns:svg="http://www.w3.org/2000/svg">
  <sodipodi:namedview
     id="namedview1"
     pagecolor="#ffffff"
     bordercolor="#000000"
     borderopacity="0.25"
     inkscape:showpageshadow="2"
     inkscape:pageopacity="0.0"
     inkscape:pagecheckerboard="0"
     inkscape:deskcolor="#d1d1d1"
     inkscape:document-units="mm"
     inkscape:zoom="0.77771465"
     inkscape:cx="397.31796"
     inkscape:cy="561.25984"
     inkscape:window-width="1876"
     inkscape:window-height="1032"
     inkscape:window-x="44"
     inkscape:window-y="0"
     inkscape:window-maximized="1"
     inkscape:current-layer="layer1" />
  <defs
     id="defs1" />
  <g
     inkscape:label="Layer 1"
     inkscape:groupmode="layer"
     id="layer1">
    <path
       sodipodi:nodetypes="ccccccccccccccccccccccccccccccc"
       style="fill:#4b4b4b;fill-opacity:1;stroke:none;stroke-width:32.172;stroke-linecap:round;stroke-linejoin:round;stroke-miterlimit:4;stroke-dasharray:none;stroke-dashoffset:0;stroke-opacity:1"
       d="m 30.7335,0 -6.5693,1.3119 2.891,6.3056 z m 27.69672,7.6541 -3.57017,7.3826 2.63387,5.5098 -10.34002,13.9419 1.1782,2.8133 6.55367,15.6359 2.89619,6.9082 -2.98882,4.8814 2.20182,5.6445 -2.43326,6.4235 C 70.34461,75.5521 82.84447,62.9525 83.96127,47.1591 84.95079,32.6466 76.01903,19.3217 62.26276,14.6838 l 3.6266,-5.5603 z M 27.5388,12.6043 C 12.8795,14.6477 1.1463001,26.7157 0.07870012,42.0709 -1.1315999,59.4333 11.759,74.502 28.9946,76.1193 l -2.0269,4.2587 4.8615,0.2692 2.2325,-5.6479 -1.6409,-4.4827 5.2985,-11.3514 -2.8911,-6.903 -6.5588,-15.6611 -1.1781,-2.8133 6.1628,-8.0356 z"
       id="path5646-9-3"
       inkscape:connector-curvature="0" />
  </g>
</svg>
