<?xml version="1.0" encoding="UTF-8" standalone="no"?>
<!-- Created with Inkscape (http://www.inkscape.org/) -->

<svg
   width="51.489315mm"
   height="44.452255mm"
   viewBox="0 0 51.489315 44.452255"
   version="1.1"
   id="svg1"
   inkscape:version="1.3.2 (091e20ef0f, 2023-11-25)"
   sodipodi:docname="level_22.svg"
   xml:space="preserve"
   xmlns:inkscape="http://www.inkscape.org/namespaces/inkscape"
   xmlns:sodipodi="http://sodipodi.sourceforge.net/DTD/sodipodi-0.dtd"
   xmlns="http://www.w3.org/2000/svg"
   xmlns:svg="http://www.w3.org/2000/svg"><sodipodi:namedview
     id="namedview1"
     pagecolor="#ffffff"
     bordercolor="#000000"
     borderopacity="0.25"
     inkscape:showpageshadow="2"
     inkscape:pageopacity="0.0"
     inkscape:pagecheckerboard="0"
     inkscape:deskcolor="#d1d1d1"
     inkscape:document-units="mm"
     inkscape:zoom="1.7692591"
     inkscape:cx="63.303334"
     inkscape:cy="103.43313"
     inkscape:window-width="1896"
     inkscape:window-height="1052"
     inkscape:window-x="24"
     inkscape:window-y="0"
     inkscape:window-maximized="1"
     inkscape:current-layer="layer1" /><defs
     id="defs1" /><g
     inkscape:label="Layer 1"
     inkscape:groupmode="layer"
     id="layer1"
     transform="translate(-74.347923,126.20625)"><path
       id="rect3588"
       style="fill:#4b4947;fill-opacity:1;stroke-width:6.63531"
       d="M 53.912129 -128.31867 L 53.912306 -113.08955 L 62.031707 -113.08955 L 62.031139 -83.12257 L 104.24097 -83.12257 L 104.24089 -119.51326 L 90.840154 -119.51326 L 90.840107 -128.31867 L 53.912129 -128.31867 z M 83.786737 -124.77002 L 84.89778 -124.77002 C 84.97184 -124.77002 85.039271 -124.74395 85.100641 -124.69121 C 85.162041 -124.63847 85.200453 -124.57068 85.215416 -124.48788 L 86.562479 -117.0333 C 86.577447 -116.95047 86.563536 -116.88268 86.521191 -116.82997 C 86.478861 -116.77723 86.420948 -116.75063 86.346908 -116.75063 L 85.235865 -116.75063 C 85.154395 -116.75063 85.08291 -116.77723 85.021541 -116.82997 C 84.960151 -116.88271 84.921729 -116.9505 84.906766 -117.0333 L 83.559703 -124.48788 C 83.544734 -124.57071 83.558655 -124.6385 83.600991 -124.69121 C 83.643331 -124.74395 83.705297 -124.77002 83.786737 -124.77002 z M 58.417485 -124.65706 L 59.650485 -124.65706 C 59.731949 -124.65706 59.803343 -124.63098 59.864714 -124.57825 C 59.926081 -124.52552 59.964009 -124.45771 59.978972 -124.37491 L 61.083169 -118.26435 L 64.526887 -118.26435 C 64.60835 -118.26435 64.679746 -118.23827 64.741116 -118.18554 C 64.802484 -118.13281 64.840928 -118.065 64.855891 -117.9822 L 65.027359 -117.0333 C 65.042327 -116.95047 65.028387 -116.88268 64.986071 -116.82997 C 64.943761 -116.77723 64.881885 -116.75063 64.80042 -116.75063 L 59.8462 -116.75063 C 59.764735 -116.75063 59.693247 -116.77723 59.631876 -116.82997 C 59.570506 -116.88271 59.532064 -116.9505 59.517101 -117.0333 L 58.190451 -124.37491 C 58.175484 -124.45773 58.189424 -124.52554 58.231739 -124.57825 C 58.274049 -124.63098 58.33602 -124.65706 58.417485 -124.65706 z M 67.39179 -122.7372 C 68.013882 -122.7372 68.556394 -122.6051 69.018744 -122.34156 C 69.48714 -122.08555 69.865656 -121.73201 70.154659 -121.28022 C 70.449708 -120.83596 70.649965 -120.32371 70.754735 -119.74391 L 70.801638 -119.48436 C 70.815245 -119.40906 70.797226 -119.34477 70.747504 -119.29206 C 70.705194 -119.23932 70.646668 -119.21325 70.57261 -119.21325 L 66.940273 -119.21325 L 66.948438 -119.16806 L 66.956603 -119.12287 C 67.007551 -118.88192 67.092115 -118.65996 67.210317 -118.45665 C 67.334564 -118.26088 67.485145 -118.10267 67.662438 -117.9822 C 67.847138 -117.86172 68.050666 -117.80146 68.272841 -117.80146 C 68.457988 -117.80146 68.604903 -117.82754 68.713869 -117.88027 C 68.822832 -117.93301 68.907533 -117.9973 68.96799 -118.07257 C 69.035849 -118.14787 69.083598 -118.21164 69.111103 -118.26435 C 69.164149 -118.33965 69.207845 -118.38485 69.242153 -118.39991 C 69.282508 -118.42248 69.347097 -118.43406 69.43597 -118.43406 L 70.591455 -118.43406 C 70.665513 -118.43406 70.728876 -118.41142 70.78147 -118.36628 C 70.840107 -118.32866 70.872595 -118.27189 70.878799 -118.19657 C 70.893165 -118.07609 70.857152 -117.92543 70.771315 -117.74471 C 70.691523 -117.57152 70.556288 -117.3988 70.365408 -117.22561 C 70.173166 -117.05996 69.920813 -116.92033 69.60796 -116.80738 C 69.302513 -116.69443 68.934807 -116.63819 68.505267 -116.63819 L 68.505362 -116.63767 C 67.653689 -116.63767 66.93245 -116.87872 66.341769 -117.36064 C 65.758494 -117.84255 65.369128 -118.54313 65.173506 -119.46177 L 65.130686 -119.69873 L 65.085778 -119.94725 C 65.010625 -120.52705 65.050185 -121.02424 65.204934 -121.43837 C 65.358319 -121.86004 65.622552 -122.17994 65.997821 -122.3983 C 66.37173 -122.62419 66.836352 -122.7372 67.39179 -122.7372 z M 79.943996 -122.7372 C 80.566085 -122.7372 81.108081 -122.6051 81.570432 -122.34156 C 82.038825 -122.08555 82.417348 -121.73201 82.706347 -121.28022 C 83.001397 -120.83596 83.201654 -120.32371 83.306424 -119.74391 L 83.353326 -119.48436 C 83.366933 -119.40906 83.348938 -119.34477 83.299192 -119.29206 C 83.256852 -119.23932 83.198328 -119.21325 83.124298 -119.21325 L 79.491962 -119.21325 L 79.500127 -119.16806 L 79.508292 -119.12287 C 79.559234 -118.88192 79.643798 -118.65996 79.762006 -118.45665 C 79.886263 -118.26088 80.036837 -118.10267 80.214126 -117.9822 C 80.398828 -117.86172 80.60235 -117.80146 80.824529 -117.80146 C 81.009679 -117.80146 81.156595 -117.82754 81.265557 -117.88027 C 81.374527 -117.93301 81.45922 -117.9973 81.519679 -118.07257 C 81.587532 -118.14787 81.635286 -118.21164 81.662792 -118.26435 C 81.715855 -118.33965 81.759543 -118.38485 81.793842 -118.39991 C 81.834163 -118.42248 81.898759 -118.43406 81.987658 -118.43406 L 83.143144 -118.43406 C 83.217193 -118.43406 83.280561 -118.41142 83.333158 -118.36628 C 83.391816 -118.32866 83.424277 -118.27189 83.430488 -118.19657 C 83.444859 -118.07609 83.408848 -117.92543 83.323004 -117.74471 C 83.24322 -117.57152 83.107981 -117.3988 82.917097 -117.22561 C 82.72486 -117.05996 82.472498 -116.92033 82.159648 -116.80738 C 81.854209 -116.69443 81.486496 -116.63819 81.056956 -116.63819 L 81.057051 -116.63767 C 80.205372 -116.63767 79.48414 -116.87872 78.893457 -117.36064 C 78.310183 -117.84255 77.920818 -118.54313 77.725195 -119.46177 L 77.682375 -119.69873 L 77.637466 -119.94725 C 77.56232 -120.52705 77.601881 -121.02424 77.756623 -121.43837 C 77.910007 -121.86004 78.174239 -122.17994 78.54951 -122.3983 C 78.92342 -122.62419 79.388556 -122.7372 79.943996 -122.7372 z M 70.916382 -122.62423 L 71.993836 -122.62423 C 72.090112 -122.62423 72.165565 -122.59762 72.219529 -122.5449 C 72.280898 -122.49216 72.322782 -122.44346 72.345754 -122.3983 L 74.38561 -118.67102 L 75.07892 -122.3983 C 75.092983 -122.44345 75.117265 -122.49215 75.152167 -122.5449 C 75.194478 -122.59762 75.259799 -122.62423 75.34867 -122.62423 L 76.42664 -122.62423 C 76.493294 -122.62423 76.553413 -122.59762 76.607375 -122.5449 C 76.667385 -122.49968 76.703738 -122.44345 76.715978 -122.37571 C 76.722776 -122.33809 76.724986 -122.30394 76.723028 -122.27378 L 75.570385 -117.0333 C 75.554372 -116.958 75.522167 -116.89021 75.473803 -116.82997 C 75.424087 -116.77723 75.343946 -116.75063 75.232858 -116.75063 L 74.232919 -116.75063 C 74.121831 -116.75063 74.032078 -116.77723 73.963301 -116.82997 C 73.900571 -116.89023 73.843867 -116.95802 73.793232 -117.0333 L 70.757501 -122.27378 C 70.737249 -122.30388 70.723672 -122.33802 70.716861 -122.37571 C 70.704612 -122.4435 70.71668 -122.49973 70.752952 -122.5449 C 70.795264 -122.59762 70.849728 -122.62423 70.916382 -122.62423 z M 67.59592 -121.60756 C 67.366339 -121.60756 67.180416 -121.55132 67.037897 -121.43837 C 66.895378 -121.32542 66.798009 -121.16723 66.745877 -120.96393 C 66.699789 -120.76815 66.701499 -120.53461 66.75048 -120.26355 L 66.754563 -120.24096 L 68.931691 -120.24096 L 68.927608 -120.26355 C 68.878627 -120.53461 68.79197 -120.76815 68.667723 -120.96393 C 68.549521 -121.16723 68.398942 -121.32542 68.215603 -121.43837 C 68.032264 -121.55132 67.825501 -121.60756 67.59592 -121.60756 z M 80.148125 -121.60756 C 79.918545 -121.60756 79.732105 -121.55132 79.589586 -121.43837 C 79.447066 -121.32542 79.349697 -121.16723 79.297565 -120.96393 C 79.251472 -120.76815 79.253187 -120.53461 79.302169 -120.26355 L 79.306252 -120.24096 L 81.48338 -120.24096 L 81.479297 -120.26355 C 81.430315 -120.53461 81.343668 -120.76815 81.219412 -120.96393 C 81.101214 -121.16723 80.950632 -121.32542 80.767292 -121.43837 C 80.583951 -121.55132 80.377705 -121.60756 80.148125 -121.60756 z M 81.142552 -112.60985 C 82.889631 -112.60985 84.409191 -112.314 85.701705 -111.7219 C 86.99041 -111.15093 88.028072 -110.35786 88.814651 -109.34282 C 89.601233 -108.32777 90.114985 -107.15426 90.355724 -105.82202 C 90.539145 -104.80698 90.500904 -103.86599 90.241606 -102.99898 C 90.0031 -102.13195 89.572176 -101.29633 88.947825 -100.49275 C 88.319673 -99.710322 87.551443 -98.896498 86.643555 -98.050628 L 83.638506 -94.30758 L 92.124293 -94.30758 C 92.353083 -94.30758 92.553838 -94.233356 92.726177 -94.08533 C 92.898516 -93.937302 93.005326 -93.747345 93.047361 -93.51473 L 93.534612 -90.818306 C 93.576647 -90.585692 93.538583 -90.395209 93.419742 -90.247182 C 93.300901 -90.099155 93.126875 -90.025457 92.898085 -90.025457 L 77.4551 -90.025457 C 77.226316 -90.025457 77.02565 -90.099155 76.853311 -90.247182 C 76.680971 -90.395209 76.574067 -90.585692 76.532033 -90.818306 L 76.188146 -92.721355 C 76.157576 -92.89053 76.158779 -93.112672 76.192298 -93.38758 C 76.242793 -93.683634 76.409694 -93.969097 76.692796 -94.244005 L 80.05998 -98.399503 C 81.364287 -99.583721 82.409997 -100.58803 83.196906 -101.41275 C 84.004616 -102.23747 84.57591 -102.98851 84.9112 -103.6652 C 85.246488 -104.3419 85.356726 -104.99742 85.242088 -105.63182 C 85.093057 -106.45655 84.742157 -107.13284 84.189057 -107.6615 C 83.652933 -108.21132 82.886001 -108.4864 81.887672 -108.4864 C 81.222112 -108.4864 80.687325 -108.33848 80.283247 -108.04242 C 79.896153 -107.76752 79.619468 -107.39745 79.453953 -106.93222 C 79.288439 -106.46698 79.213747 -105.95938 79.229905 -105.40957 C 79.217188 -105.13467 79.116332 -104.94418 78.927449 -104.83845 C 78.759367 -104.73272 78.57138 -104.67977 78.363394 -104.67977 L 75.056619 -104.67977 C 74.848632 -104.67977 74.670678 -104.74362 74.52296 -104.8705 C 74.371419 -105.01853 74.280536 -105.17683 74.249967 -105.346 C 74.094988 -106.31875 74.126255 -107.23898 74.343956 -108.106 C 74.582458 -108.97301 74.994312 -109.7448 75.579184 -110.4215 C 76.164056 -111.0982 76.921075 -111.62656 77.850627 -112.0072 C 78.776357 -112.40898 79.873834 -112.60985 81.142552 -112.60985 z "
       transform="matrix(1,0,-0.18070297,0.98353772,0,0)" /></g></svg>
