<?xml version="1.0" encoding="UTF-8" standalone="no"?>
<!-- Created with Inkscape (http://www.inkscape.org/) -->

<svg
   width="33.216785mm"
   height="28.676888mm"
   viewBox="0 0 33.216785 28.676887"
   version="1.1"
   id="svg1"
   inkscape:version="1.3.2 (091e20ef0f, 2023-11-25)"
   sodipodi:docname="level_22.svg"
   xml:space="preserve"
   xmlns:inkscape="http://www.inkscape.org/namespaces/inkscape"
   xmlns:sodipodi="http://sodipodi.sourceforge.net/DTD/sodipodi-0.dtd"
   xmlns="http://www.w3.org/2000/svg"
   xmlns:svg="http://www.w3.org/2000/svg"><sodipodi:namedview
     id="namedview1"
     pagecolor="#ffffff"
     bordercolor="#000000"
     borderopacity="0.25"
     inkscape:showpageshadow="2"
     inkscape:pageopacity="0.0"
     inkscape:pagecheckerboard="0"
     inkscape:deskcolor="#d1d1d1"
     inkscape:document-units="mm"
     inkscape:zoom="0.62552755"
     inkscape:cx="78.333879"
     inkscape:cy="235.00164"
     inkscape:window-width="1896"
     inkscape:window-height="1052"
     inkscape:window-x="24"
     inkscape:window-y="0"
     inkscape:window-maximized="1"
     inkscape:current-layer="layer1" /><defs
     id="defs1" /><g
     inkscape:label="Layer 1"
     inkscape:groupmode="layer"
     id="layer1"
     transform="translate(-74.347923,126.20625)"><path
       id="rect3588"
       style="fill:#4b4947;fill-opacity:1;stroke-width:6.58047"
       d="m 76.123143,-126.20625 -1.77522,9.66286 h 5.237983 l -3.493767,19.014027 h 27.230381 l 4.24219,-23.089867 h -8.645075 l 1.02646,-5.58702 z m 18.859003,2.25161 h 0.716756 c 0.04778,0 0.08824,0.0166 0.121683,0.05 0.03347,0.0334 0.05034,0.0765 0.05034,0.12901 l -2e-6,4.72993 c 5e-6,0.0525 -0.01685,0.0956 -0.05034,0.12901 -0.03345,0.0334 -0.07391,0.0503 -0.121678,0.0503 H 94.98215 c -0.05256,0 -0.09557,-0.0169 -0.12902,-0.0503 -0.03346,-0.0334 -0.05034,-0.0765 -0.05034,-0.12901 l 10e-7,-4.72993 c -5e-6,-0.0525 0.01691,-0.0956 0.05034,-0.12901 0.03346,-0.0334 0.07648,-0.05 0.129015,-0.05 z m -16.379363,0.0717 h 0.795433 c 0.05255,0 0.09557,0.0166 0.129017,0.05 0.03345,0.0334 0.05,0.0765 0.05,0.12902 l 10e-7,3.87715 h 2.221609 c 0.05255,0 0.09557,0.0166 0.129017,0.05 0.03345,0.0334 0.05034,0.0765 0.05034,0.12902 v 0.60207 c 5e-6,0.0525 -0.01691,0.0956 -0.05034,0.12902 -0.03344,0.0334 -0.07646,0.0503 -0.129011,0.0503 H 78.60279 c -0.05256,0 -0.09557,-0.0169 -0.12902,-0.0503 -0.03345,-0.0334 -0.05034,-0.0765 -0.05034,-0.12902 v -4.65824 c -5e-6,-0.0525 0.01691,-0.0956 0.05034,-0.12902 0.03344,-0.0334 0.07646,-0.05 0.129015,-0.05 z m 5.56569,1.21815 c 0.401324,0 0.735909,0.0838 1.003458,0.25103 0.272327,0.16244 0.475301,0.38676 0.609075,0.67342 0.138552,0.28188 0.208026,0.6069 0.208025,0.97479 v 0.16468 c 10e-7,0.0478 -0.01911,0.0886 -0.05734,0.12201 -0.03344,0.0334 -0.07424,0.05 -0.122014,0.05 h -2.343291 l 2.1e-5,0.0287 2.1e-5,0.0287 c 0.0048,0.15288 0.03346,0.29372 0.08601,0.42272 0.05733,0.12421 0.136032,0.2246 0.236363,0.30104 0.105109,0.0764 0.229384,0.11468 0.372713,0.11468 0.119442,0 0.217262,-0.0166 0.293702,-0.05 0.07644,-0.0334 0.138579,-0.0743 0.186356,-0.12202 0.05256,-0.0478 0.09079,-0.0882 0.114681,-0.12168 0.043,-0.0478 0.07646,-0.0765 0.100346,-0.086 0.02867,-0.0143 0.07168,-0.0216 0.129011,-0.0216 h 0.745425 c 0.04778,0 0.08602,0.0143 0.114679,0.043 0.03345,0.0239 0.04779,0.0599 0.04301,0.10768 -0.0048,0.0764 -0.04557,0.17204 -0.122015,0.2867 -0.07166,0.10989 -0.179043,0.21948 -0.322373,0.32937 -0.143329,0.10511 -0.322405,0.1937 -0.537399,0.26537 -0.210217,0.0717 -0.453988,0.10735 -0.731092,0.10735 l 1e-6,3.3e-4 c -0.549431,0 -0.986616,-0.15295 -1.311496,-0.45872 -0.320103,-0.30578 -0.489621,-0.75029 -0.50873,-1.33317 v -0.15035 l -10e-7,-0.15769 c 0.01911,-0.36788 0.10259,-0.68335 0.250697,-0.94611 0.148108,-0.26755 0.355862,-0.47053 0.62341,-0.60908 0.267549,-0.14332 0.58046,-0.21503 0.938784,-0.21503 z m 8.097671,0 c 0.401322,0 0.735574,0.0838 1.003124,0.25103 0.272325,0.16244 0.475303,0.38676 0.609075,0.67342 0.138552,0.28188 0.208027,0.6069 0.208026,0.97479 l -1e-6,0.16468 c 2e-6,0.0478 -0.01911,0.0886 -0.05734,0.12201 -0.03346,0.0334 -0.07426,0.05 -0.122014,0.05 h -2.34329 l 2.1e-5,0.0287 2.1e-5,0.0287 c 0.0048,0.15288 0.03345,0.29372 0.08601,0.42272 0.05734,0.12421 0.136034,0.2246 0.236362,0.30104 0.10511,0.0764 0.229381,0.11468 0.372713,0.11468 0.119444,0 0.217265,-0.0166 0.293702,-0.05 0.07644,-0.0334 0.138579,-0.0743 0.186356,-0.12202 0.05255,-0.0478 0.09079,-0.0882 0.114682,-0.12168 0.04301,-0.0478 0.07646,-0.0765 0.100346,-0.086 0.02865,-0.0143 0.07166,-0.0216 0.12901,-0.0216 h 0.745426 c 0.04777,0 0.08602,0.0143 0.114678,0.043 0.03346,0.0239 0.04778,0.0599 0.043,0.10768 -0.0048,0.0764 -0.04557,0.17204 -0.122015,0.2867 -0.07166,0.10989 -0.17904,0.21948 -0.322373,0.32937 -0.143326,0.10511 -0.322407,0.1937 -0.5374,0.26537 -0.210212,0.0717 -0.453986,0.10735 -0.731091,0.10735 l 10e-7,3.3e-4 c -0.549435,0 -0.986615,-0.15295 -1.311496,-0.45872 -0.320103,-0.30578 -0.48962,-0.75029 -0.50873,-1.33317 v -0.15035 l -10e-7,-0.15769 c 0.01911,-0.36788 0.102597,-0.68335 0.250698,-0.94611 0.148107,-0.26755 0.35586,-0.47053 0.62341,-0.60908 0.26755,-0.14332 0.580792,-0.21503 0.939117,-0.21503 z m -5.837058,0.0717 h 0.695087 c 0.06211,0 0.107684,0.0169 0.136354,0.0503 0.03345,0.0334 0.05479,0.0644 0.06434,0.093 l 0.881443,2.36495 0.881776,-2.36495 c 0.01433,-0.0286 0.03567,-0.0595 0.06435,-0.093 0.03344,-0.0334 0.07868,-0.0503 0.136012,-0.0503 h 0.695419 c 0.043,0 0.07868,0.0169 0.107351,0.0503 0.03345,0.0287 0.05034,0.0644 0.05034,0.10735 4e-6,0.0239 -0.0026,0.0456 -0.0074,0.0647 l -1.354501,3.32508 c -0.01911,0.0478 -0.04779,0.0908 -0.08601,0.12901 -0.03822,0.0334 -0.09302,0.0503 -0.164682,0.0503 h -0.64508 c -0.07167,0 -0.126466,-0.0169 -0.164692,-0.0503 -0.03344,-0.0383 -0.06212,-0.0812 -0.08601,-0.12901 l -1.3475,-3.32508 c -0.0096,-0.0191 -0.01434,-0.0407 -0.01433,-0.0647 10e-7,-0.043 0.01434,-0.0787 0.043,-0.10735 0.03344,-0.0334 0.07168,-0.0503 0.114677,-0.0503 z m -2.260612,0.64507 c -0.148107,0 -0.274601,0.0357 -0.379715,0.10735 -0.105109,0.0717 -0.186364,0.17204 -0.243695,0.30103 -0.05256,0.12423 -0.07868,0.27241 -0.07868,0.44439 l 1.1e-5,0.0143 h 1.404507 l -1e-5,-0.0143 c 0,-0.17198 -0.02868,-0.32016 -0.08601,-0.44439 -0.05255,-0.12899 -0.131256,-0.22936 -0.236364,-0.30103 -0.105108,-0.0717 -0.231939,-0.10735 -0.380046,-0.10735 z m 8.09767,0 c -0.148107,0 -0.274934,0.0357 -0.380048,0.10735 -0.105109,0.0717 -0.186365,0.17204 -0.243696,0.30103 -0.05256,0.12423 -0.07868,0.27241 -0.07868,0.44439 l 1e-5,0.0143 h 1.404507 l -1e-5,-0.0143 c 10e-7,-0.17198 -0.02867,-0.32016 -0.08601,-0.44439 -0.05255,-0.12899 -0.131255,-0.22936 -0.236364,-0.30103 -0.105109,-0.0717 -0.231606,-0.10735 -0.379713,-0.10735 z m -0.407384,5.70904 c 1.127074,0 2.072883,0.18772 2.837685,0.5634 0.764808,0.36228 1.341771,0.86549 1.73088,1.50953 0.38911,0.64405 0.58374,1.38864 0.583739,2.23394 0,0.64405 -0.134366,1.2411 -0.402715,1.79122 -0.254939,0.55013 -0.630349,1.08033 -1.126807,1.5902 -0.496445,0.49645 -1.086916,1.01282 -1.77122,1.54953 l -2.374961,2.37496 h 5.474346 c 0.147596,0 0.268455,0.0471 0.362378,0.14101 0.09392,0.0939 0.140684,0.21446 0.140684,0.36205 l -10e-7,1.71088 c -2e-6,0.14759 -0.04674,0.26845 -0.140683,0.36238 -0.09392,0.0939 -0.214782,0.14068 -0.362379,0.14068 h -9.962568 c -0.147593,0 -0.268455,-0.0468 -0.362378,-0.14068 -0.09392,-0.0939 -0.140684,-0.21479 -0.140684,-0.36238 v -1.20748 c 0,-0.10735 0.02667,-0.24829 0.08038,-0.42272 0.06709,-0.18785 0.208036,-0.36898 0.422718,-0.5434 l 2.656663,-2.63666 c 0.979484,-0.75139 1.771169,-1.38862 2.374961,-1.91191 0.617211,-0.52328 1.073316,-0.99982 1.368503,-1.42918 0.295187,-0.42936 0.442721,-0.84529 0.442721,-1.24781 0,-0.52329 -0.147534,-0.9524 -0.442721,-1.28783 -0.281768,-0.34886 -0.744464,-0.5234 -1.388505,-0.5234 -0.429365,0 -0.791611,0.0939 -1.086802,0.2817 -0.281769,0.17443 -0.503404,0.40923 -0.664415,0.70442 -0.161012,0.2952 -0.268371,0.61727 -0.322041,0.96612 -0.04025,0.17443 -0.127521,0.29529 -0.261699,0.36238 -0.120758,0.0671 -0.248205,0.10068 -0.38238,0.10068 h -2.133265 c -0.134176,0 -0.241529,-0.0405 -0.322039,-0.12102 -0.08051,-0.0939 -0.120682,-0.19436 -0.120682,-0.3017 0.01342,-0.61721 0.140865,-1.2011 0.382382,-1.75122 0.254934,-0.55012 0.6106,-1.03982 1.066799,-1.46918 0.456198,-0.42937 1.006159,-0.76461 1.650204,-1.00613 0.644044,-0.25493 1.375464,-0.38238 2.193939,-0.38238 z" /></g></svg>
