<?xml version="1.0" encoding="UTF-8" standalone="no"?>
<!-- Created with Inkscape (http://www.inkscape.org/) -->

<svg
   width="22.738245mm"
   height="28.255779mm"
   viewBox="0 0 22.738245 28.255779"
   version="1.1"
   id="svg1"
   inkscape:version="1.3.2 (091e20ef0f, 2023-11-25)"
   sodipodi:docname="level1.svg"
   xmlns:inkscape="http://www.inkscape.org/namespaces/inkscape"
   xmlns:sodipodi="http://sodipodi.sourceforge.net/DTD/sodipodi-0.dtd"
   xmlns="http://www.w3.org/2000/svg"
   xmlns:svg="http://www.w3.org/2000/svg">
  <sodipodi:namedview
     id="namedview1"
     pagecolor="#ffffff"
     bordercolor="#000000"
     borderopacity="0.25"
     inkscape:showpageshadow="2"
     inkscape:pageopacity="0.0"
     inkscape:pagecheckerboard="0"
     inkscape:deskcolor="#d1d1d1"
     inkscape:document-units="mm"
     inkscape:zoom="0.38573935"
     inkscape:cx="-155.54545"
     inkscape:cy="-103.69697"
     inkscape:window-width="1896"
     inkscape:window-height="1052"
     inkscape:window-x="24"
     inkscape:window-y="0"
     inkscape:window-maximized="1"
     inkscape:current-layer="layer1" />
  <defs
     id="defs1">
    <clipPath
       clipPathUnits="userSpaceOnUse"
       id="clipPath4-08">
      <path
         id="path5-1"
         style="fill:#c3c3c3;fill-opacity:0.988235;stroke-width:2.20738;stroke-linecap:round;stroke-linejoin:round"
         d="M -14.719569,-12.486369 H 53.649337 122.01824 V 74.762625 H -14.719569 Z"
         sodipodi:nodetypes="cccccc" />
    </clipPath>
    <clipPath
       clipPathUnits="userSpaceOnUse"
       id="clipPath3-9">
      <path
         id="path4-357"
         style="fill:#c3c3c3;fill-opacity:0.988235;stroke-width:2.20738;stroke-linecap:round;stroke-linejoin:round"
         d="M 122.01824,74.762596 V 162.01159 H 53.649337 -14.719569 V 74.762596 Z"
         sodipodi:nodetypes="cccccc" />
    </clipPath>
    <rect
       x="40.66116"
       y="678.98822"
       width="512.60156"
       height="111.65349"
       id="rect4724" />
    <clipPath
       clipPathUnits="userSpaceOnUse"
       id="clipPath4509">
      <path
         id="path4509"
         style="fill:#c3c3c3;fill-opacity:0.988235;stroke-width:2.20738;stroke-linecap:round;stroke-linejoin:round"
         d="M 122.01824,74.762596 V 162.01159 H 53.649337 -14.719569 V 74.762596 Z"
         sodipodi:nodetypes="cccccc" />
    </clipPath>
    <clipPath
       clipPathUnits="userSpaceOnUse"
       id="clipPath4511">
      <path
         id="path4511"
         style="fill:#c3c3c3;fill-opacity:0.988235;stroke-width:2.20738;stroke-linecap:round;stroke-linejoin:round"
         d="M -14.719569,-12.486369 H 53.649337 122.01824 V 74.762625 H -14.719569 Z"
         sodipodi:nodetypes="cccccc" />
    </clipPath>
  </defs>
  <g
     inkscape:label="Layer 1"
     inkscape:groupmode="layer"
     id="layer1">
    <path
       id="rect4"
       style="fill:#4b4947;fill-opacity:1;stroke-width:1.373;stroke-linecap:round;stroke-linejoin:round"
       d="M 2.8421895,0 C 1.2675648,0 0,1.2675647 0,2.8421894 V 25.413226 c 0,1.574625 1.2675648,2.842554 2.8421895,2.842554 H 19.896055 c 1.574625,0 2.84219,-1.267929 2.84219,-2.842554 V 2.8421894 C 22.738245,1.2675647 21.47068,0 19.896055,0 Z M 19.835816,1.7104248 h 0.784934 c 0.05232,0 0.097,0.018391 0.133622,0.055127 0.03665,0.036737 0.05477,0.083509 0.05477,0.1409229 v 5.1798315 c 0,0.05755 -0.01812,0.104645 -0.05477,0.141288 -0.03665,0.03673 -0.08132,0.05513 -0.133622,0.05513 h -0.784934 c -0.05755,0 -0.104298,-0.01839 -0.140922,-0.05513 -0.03665,-0.03673 -0.05514,-0.08383 -0.05514,-0.141288 V 1.9064755 c 0,-0.057554 0.01848,-0.1043271 0.05514,-0.1409229 0.03665,-0.036738 0.08339,-0.055127 0.140922,-0.055128 z M 1.8984439,1.7889181 h 0.8710937 c 0.057554,0 0.1046639,0.018391 0.1412879,0.055128 0.036643,0.036737 0.055128,0.083509 0.055128,0.140923 v 4.2459431 h 2.4329289 c 0.057555,0 0.1046642,0.01839 0.1412881,0.05513 0.036643,0.03674 0.054763,0.08383 0.054763,0.141288 v 0.659344 c 0,0.05756 -0.01812,0.104645 -0.054763,0.141288 -0.036643,0.03674 -0.083752,0.05513 -0.1412881,0.05513 l -3.5004382,-3.64e-4 c -0.05755,0 -0.1046641,-0.01838 -0.1412881,-0.05513 -0.036643,-0.03673 -0.054764,-0.08383 -0.054764,-0.141288 V 1.9849689 c 0,-0.057554 0.01812,-0.1043271 0.054763,-0.1409229 0.036643,-0.036738 0.083757,-0.055127 0.1412888,-0.055128 z m 6.0954656,1.334387 c 0.439497,0 0.805544,0.091424 1.098541,0.2745443 0.29823,0.1778919 0.520875,0.423924 0.667377,0.7378374 0.151728,0.3086854 0.227448,0.6646265 0.227448,1.0675095 v 0.1803522 c 0,0.052327 -0.02093,0.096978 -0.0628,0.1336212 -0.03665,0.036738 -0.08095,0.054763 -0.133256,0.054763 h -2.566551 v 0.031398 0.031032 c 0.0053,0.1674364 0.03664,0.3216795 0.09419,0.4629285 0.06279,0.136068 0.149339,0.245977 0.259211,0.329672 0.11511,0.0837 0.25084,0.125589 0.407801,0.125589 0.130803,0 0.238292,-0.01839 0.322005,-0.05513 0.08371,-0.03674 0.15176,-0.08139 0.204082,-0.133621 0.05756,-0.05233 0.09943,-0.09666 0.12559,-0.133256 0.0471,-0.05233 0.08374,-0.08374 0.10989,-0.09419 0.03142,-0.01554 0.07852,-0.02337 0.141289,-0.02337 h 0.815965 c 0.05231,0 0.09419,0.0159 0.12559,0.04746 0.03665,0.0259 0.05232,0.06499 0.04709,0.117558 -0.0053,0.08374 -0.04953,0.188408 -0.133256,0.313973 -0.07848,0.120338 -0.196433,0.240732 -0.353399,0.361069 -0.156962,0.11511 -0.353072,0.211777 -0.588517,0.290243 -0.230211,0.07846 -0.497171,0.117923 -0.800633,0.117923 -0.601696,0 -1.080101,-0.167532 -1.4358808,-0.502357 C 6.2151433,6.5239862 6.0291403,6.0375772 6.0082097,5.3992472 V 5.2345937 5.0619083 C 6.0291214,4.6590253 6.1209059,4.3135697 6.2831188,4.0257961 6.445313,3.7327945 6.6728265,3.5104904 6.9658285,3.3587853 7.2588265,3.2018048 7.6014995,3.1233051 7.9939095,3.1233051 Z m 8.8675575,0 c 0.439499,0 0.80591,0.091424 1.098907,0.2745443 0.29823,0.1778919 0.52051,0.423924 0.667011,0.7378374 0.151734,0.3086854 0.227447,0.6646265 0.227447,1.0675095 v 0.1803522 c 0,0.052327 -0.02092,0.096978 -0.0628,0.1336212 -0.03664,0.036738 -0.08096,0.054763 -0.133254,0.054763 h -2.566551 v 0.031398 0.031032 c 0.0053,0.1674364 0.03664,0.3216795 0.09419,0.4629285 0.06279,0.136068 0.149339,0.245977 0.259211,0.329672 0.11511,0.0837 0.251204,0.125589 0.408165,0.125589 0.130803,0 0.237928,-0.01839 0.32164,-0.05513 0.08371,-0.03674 0.151761,-0.08139 0.204084,-0.133621 0.05756,-0.05233 0.09943,-0.09666 0.125589,-0.133256 0.0471,-0.05233 0.08374,-0.08374 0.109892,-0.09419 0.03142,-0.01554 0.07852,-0.02337 0.141286,-0.02337 h 0.815967 c 0.05232,0 0.0942,0.0159 0.125588,0.04746 0.03665,0.0259 0.05237,0.06499 0.0471,0.117558 -0.0053,0.08374 -0.04954,0.188408 -0.133257,0.313973 -0.07848,0.120338 -0.196442,0.240733 -0.353402,0.36107 -0.156966,0.11511 -0.353075,0.211776 -0.588518,0.290243 -0.230213,0.07846 -0.496804,0.117922 -0.800267,0.117922 -0.601691,0 -1.080461,-0.167532 -1.436246,-0.502357 -0.350553,-0.334873 -0.536556,-0.821282 -0.557487,-1.4596121 V 5.2345937 5.0619083 c 0.02091,-0.402883 0.112695,-0.7483386 0.274909,-1.0361122 0.162194,-0.2930016 0.389709,-0.5153057 0.682711,-0.6670108 0.292996,-0.1569805 0.635672,-0.2354802 1.028079,-0.2354802 z m -6.391915,0.078128 h 0.761204 c 0.06801,0 0.117923,0.018392 0.14932,0.055127 0.03665,0.036737 0.06001,0.070903 0.07046,0.1022239 L 12.41582,5.9486992 13.381107,3.358784 c 0.01569,-0.031557 0.03941,-0.065722 0.07082,-0.1022239 0.03664,-0.036738 0.08619,-0.055127 0.148954,-0.055127 h 0.761204 c 0.0471,0 0.08654,0.018392 0.117923,0.055127 0.03664,0.031556 0.05476,0.070966 0.05476,0.1179225 0,0.026375 -0.0025,0.049738 -0.0077,0.070461 l -1.483312,3.6413616 c -0.02091,0.05233 -0.05232,0.09942 -0.09419,0.141288 -0.04188,0.03673 -0.101882,0.05513 -0.180353,0.05513 h -0.7064 c -0.07848,0 -0.13886,-0.01839 -0.180717,-0.05513 -0.03667,-0.04192 -0.06806,-0.08901 -0.09422,-0.141287 l -1.47531,-3.6413608 c -0.01046,-0.020723 -0.0157,-0.044087 -0.0157,-0.070461 0,-0.047099 0.01569,-0.086507 0.0471,-0.1179224 0.03665,-0.036737 0.07852,-0.055128 0.125588,-0.055128 z M 7.9939095,3.9082382 c -0.162195,0 -0.300723,0.039092 -0.415833,0.1175575 -0.115104,0.078467 -0.20409,0.1883762 -0.266877,0.3296725 -0.05755,0.1360212 -0.08652,0.2983107 -0.08652,0.4866587 v 0.015699 h 1.53847 v -0.015699 c 0,-0.188348 -0.0314,-0.3506375 -0.09419,-0.4866587 C 8.6114095,4.214172 8.5248555,4.1042627 8.4097465,4.0257962 8.2946415,3.9473292 8.1561075,3.9082387 7.9939145,3.9082382 Z m 8.8675575,0 c -0.162194,0 -0.300722,0.039092 -0.415831,0.1175575 -0.115107,0.078466 -0.204091,0.1883758 -0.266878,0.3296721 -0.05756,0.1360213 -0.08652,0.2983108 -0.08652,0.4866588 v 0.015699 h 1.538467 v -0.015699 c 0,-0.188348 -0.03141,-0.3506375 -0.09419,-0.4866588 C 17.478956,4.214172 17.392772,4.1042627 17.277667,4.0257962 17.162558,3.9473292 17.023665,3.9082387 16.86147,3.9082382 Z m -5.391215,6.9117958 h 2.136115 c 0.134341,0 0.248411,0.04689 0.342449,0.140923 0.09404,0.09404 0.140925,0.215118 0.140925,0.362895 v 13.098167 c 0,0.147775 -0.04689,0.268856 -0.140925,0.362894 -0.09404,0.09404 -0.208108,0.140923 -0.342449,0.140923 h -2.216799 c -0.134341,0 -0.255421,-0.04689 -0.362895,-0.140923 -0.09404,-0.09404 -0.140923,-0.215119 -0.140923,-0.362894 V 14.406998 l -2.9016995,2.236878 c -0.120907,0.09404 -0.248632,0.127631 -0.382973,0.100764 -0.120908,-0.02687 -0.228331,-0.100701 -0.322371,-0.221607 L 6.2710711,15.213106 C 6.190466,15.092199 6.1568733,14.964473 6.1703075,14.830132 6.1971757,14.695789 6.2710067,14.588366 6.3919144,14.507761 l 4.5945996,-3.546804 c 0.08061,-0.05373 0.154436,-0.08732 0.221605,-0.100763 0.08061,-0.02687 0.168094,-0.04015 0.262133,-0.04015 z" />
  </g>
</svg>
