<?xml version="1.0" encoding="UTF-8" standalone="no"?>
<!-- Created with Inkscape (http://www.inkscape.org/) -->

<svg
   width="32.185162mm"
   height="39.994793mm"
   viewBox="0 0 32.185161 39.994793"
   version="1.1"
   id="svg1"
   inkscape:version="1.3.2 (091e20ef0f, 2023-11-25)"
   sodipodi:docname="level1.svg"
   xmlns:inkscape="http://www.inkscape.org/namespaces/inkscape"
   xmlns:sodipodi="http://sodipodi.sourceforge.net/DTD/sodipodi-0.dtd"
   xmlns="http://www.w3.org/2000/svg"
   xmlns:svg="http://www.w3.org/2000/svg">
  <sodipodi:namedview
     id="namedview1"
     pagecolor="#ffffff"
     bordercolor="#000000"
     borderopacity="0.25"
     inkscape:showpageshadow="2"
     inkscape:pageopacity="0.0"
     inkscape:pagecheckerboard="0"
     inkscape:deskcolor="#d1d1d1"
     inkscape:document-units="mm"
     inkscape:zoom="1.5429574"
     inkscape:cx="123.14015"
     inkscape:cy="90.086739"
     inkscape:window-width="1896"
     inkscape:window-height="1052"
     inkscape:window-x="24"
     inkscape:window-y="0"
     inkscape:window-maximized="1"
     inkscape:current-layer="layer1" />
  <defs
     id="defs1" />
  <g
     inkscape:label="Layer 1"
     inkscape:groupmode="layer"
     id="layer1">
    <path
       id="rect4"
       style="fill:#4b4947;fill-opacity:1;stroke-width:1.373;stroke-linecap:round;stroke-linejoin:round"
       d="M 4.0230103 0 C 1.7941893 -3.133293e-16 0 1.7941893 0 4.0230103 L 0 35.971448 C 9.3998789e-16 38.200269 1.7941893 39.994975 4.0230103 39.994975 L 28.162105 39.994975 C 30.390926 39.994975 32.185116 38.200269 32.185116 35.971448 L 32.185116 4.0230103 C 32.185116 1.7941893 30.390926 0 28.162105 0 L 4.0230103 0 z M 28.076839 2.4210409 L 29.187882 2.4210409 C 29.261942 2.4210409 29.325178 2.4470723 29.377018 2.4990723 C 29.428885 2.5510721 29.454533 2.6172768 29.454533 2.6985433 L 29.454533 10.030396 C 29.454533 10.111861 29.428885 10.178517 29.377018 10.230383 C 29.325152 10.282383 29.261916 10.308415 29.187882 10.308415 L 28.076839 10.308415 C 27.995379 10.308415 27.929208 10.282383 27.877368 10.230383 C 27.825502 10.178383 27.799337 10.111728 27.799337 10.030396 L 27.799337 2.6985433 C 27.799337 2.6170768 27.825502 2.5508721 27.877368 2.4990723 C 27.929235 2.4470723 27.995406 2.4210409 28.076839 2.4210409 z M 2.6871745 2.5321452 L 3.9201742 2.5321452 C 4.0016406 2.5321452 4.0683221 2.5581766 4.1201619 2.6101766 C 4.1720286 2.6621764 4.1981934 2.7283811 4.1981934 2.8096476 L 4.1981934 8.8196167 L 7.6419108 8.8196167 C 7.7233773 8.8196167 7.7900588 8.8456483 7.8418986 8.8976481 C 7.8937651 8.9496481 7.9194132 9.0163028 7.9194132 9.0976359 L 7.9194132 10.030912 C 7.9194132 10.112379 7.8937651 10.179033 7.8418986 10.2309 C 7.7900321 10.2829 7.7233506 10.308931 7.6419108 10.308931 L 2.6871745 10.308415 C 2.6057147 10.308415 2.5390265 10.282383 2.4871867 10.230383 C 2.4353201 10.178383 2.409672 10.111728 2.409672 10.030396 L 2.409672 2.8096476 C 2.409672 2.7281811 2.4353201 2.6619764 2.4871867 2.6101766 C 2.5390532 2.5581766 2.6057413 2.5321452 2.6871745 2.5321452 z M 11.315072 4.4209188 C 11.937163 4.4209188 12.45529 4.550326 12.870015 4.8095256 C 13.292148 5.061325 13.607294 5.4095739 13.814661 5.8539062 C 14.029426 6.2908387 14.136605 6.7946596 14.136605 7.3649251 L 14.136605 7.6202067 C 14.136605 7.6942732 14.106988 7.7574759 14.047721 7.8093424 C 13.995855 7.8613424 13.933136 7.8868571 13.859102 7.8868571 L 10.226249 7.8868571 L 10.226249 7.9312988 L 10.226249 7.9752238 C 10.233649 8.2122234 10.278108 8.430548 10.359574 8.630481 C 10.448448 8.8230806 10.570957 8.9786528 10.726477 9.0971191 C 10.88941 9.2155856 11.08153 9.2748861 11.303703 9.2748861 C 11.488849 9.2748861 11.640996 9.2488545 11.759489 9.1968547 C 11.877982 9.1448547 11.9743 9.0816521 12.04836 9.0077189 C 12.129827 8.9336524 12.1891 8.8708999 12.226127 8.8190999 C 12.292794 8.7450334 12.34466 8.7005747 12.381673 8.6857747 C 12.42614 8.6637749 12.492821 8.6527018 12.581661 8.6527018 L 13.736629 8.6527018 C 13.810682 8.6527018 13.869956 8.6752146 13.914396 8.7198812 C 13.966263 8.7565477 13.988459 8.8118795 13.981059 8.8862793 C 13.973659 9.0048124 13.91094 9.1529637 13.79244 9.3306966 C 13.681353 9.5010296 13.514392 9.6714436 13.292212 9.8417765 C 13.070039 10.00471 12.792453 10.141538 12.459188 10.252604 C 12.133335 10.363671 11.755462 10.419519 11.325924 10.419519 C 10.474246 10.419519 9.7970819 10.182384 9.2934896 9.7084513 C 8.7972972 9.2344523 8.534017 8.5459591 8.5043905 7.6424276 L 8.5043905 7.4093669 L 8.5043905 7.1649373 C 8.5339903 6.5946718 8.6639078 6.1056927 8.893514 5.6983602 C 9.1230936 5.2836277 9.4451308 4.9689647 9.8598633 4.7542318 C 10.27459 4.5320322 10.759632 4.4209188 11.315072 4.4209188 z M 23.86676 4.4209188 C 24.488853 4.4209188 25.007495 4.550326 25.422221 4.8095256 C 25.844353 5.061325 26.158983 5.4095739 26.366349 5.8539062 C 26.581122 6.2908387 26.688293 6.7946596 26.688293 7.3649251 L 26.688293 7.6202067 C 26.688293 7.6942732 26.658677 7.7574759 26.59941 7.8093424 C 26.547543 7.8613424 26.484818 7.8868571 26.410791 7.8868571 L 22.777938 7.8868571 L 22.777938 7.9312988 L 22.777938 7.9752238 C 22.785338 8.2122234 22.829796 8.430548 22.911263 8.630481 C 23.000136 8.8230806 23.122646 8.9786528 23.278166 9.0971191 C 23.441099 9.2155856 23.633735 9.2748861 23.855908 9.2748861 C 24.041055 9.2748861 24.192684 9.2488545 24.311178 9.1968547 C 24.42967 9.1448547 24.525989 9.0816521 24.600049 9.0077189 C 24.681515 8.9336524 24.740789 8.8708999 24.777816 8.8190999 C 24.844482 8.7450334 24.896349 8.7005747 24.933362 8.6857747 C 24.977828 8.6637749 25.04451 8.6527018 25.13335 8.6527018 L 26.288318 8.6527018 C 26.362378 8.6527018 26.421652 8.6752146 26.466085 8.7198812 C 26.517951 8.7565477 26.540214 8.8118795 26.532747 8.8862793 C 26.525347 9.0048124 26.462628 9.1529637 26.344128 9.3306966 C 26.233043 9.5010296 26.066073 9.6714436 25.843901 9.8417765 C 25.621721 10.00471 25.344136 10.141538 25.010876 10.252604 C 24.685018 10.363671 24.307669 10.419519 23.878129 10.419519 C 23.026458 10.419519 22.348778 10.182384 21.845178 9.7084513 C 21.348986 9.2344523 21.085706 8.5459591 21.056079 7.6424276 L 21.056079 7.4093669 L 21.056079 7.1649373 C 21.085679 6.5946718 21.215596 6.1056927 21.445203 5.6983602 C 21.674781 5.2836277 21.996819 4.9689647 22.411552 4.7542318 C 22.826278 4.5320322 23.311322 4.4209188 23.86676 4.4209188 z M 14.81925 4.5315063 L 15.896704 4.5315063 C 15.992977 4.5315063 16.063621 4.5575378 16.108061 4.6095378 C 16.159927 4.6615376 16.192996 4.7098985 16.207796 4.7542318 L 17.574121 8.4201579 L 18.940446 4.7542318 C 18.962646 4.7095651 18.996232 4.6612043 19.040698 4.6095378 C 19.092565 4.5575378 19.162692 4.5315063 19.251538 4.5315063 L 20.328992 4.5315063 C 20.395658 4.5315063 20.451487 4.5575378 20.495907 4.6095378 C 20.547773 4.6542043 20.573421 4.7099861 20.573421 4.7764526 C 20.573421 4.8137859 20.569969 4.8468548 20.562569 4.8761882 L 18.462956 10.030396 C 18.433356 10.104461 18.388896 10.171117 18.329631 10.230383 C 18.270364 10.282383 18.185422 10.308415 18.074349 10.308415 L 17.07441 10.308415 C 16.963323 10.308415 16.877858 10.282383 16.818612 10.230383 C 16.766745 10.17105 16.722293 10.104394 16.685286 10.030396 L 14.597042 4.8761882 C 14.582242 4.8468548 14.574821 4.8137859 14.574821 4.7764526 C 14.574821 4.7097861 14.597017 4.6540043 14.641484 4.6095378 C 14.69335 4.5575378 14.752625 4.5315063 14.81925 4.5315063 z M 11.315072 5.5319621 C 11.085492 5.5319621 10.88941 5.5872937 10.726477 5.6983602 C 10.563551 5.8094266 10.437596 5.9649988 10.348722 6.1649984 C 10.267262 6.3575313 10.226249 6.5872458 10.226249 6.8538452 L 10.226249 6.8760661 L 12.403894 6.8760661 L 12.403894 6.8538452 C 12.403894 6.5872458 12.359442 6.3575313 12.270569 6.1649984 C 12.189109 5.9649988 12.066599 5.8094266 11.903666 5.6983602 C 11.74074 5.5872937 11.54465 5.5319621 11.315072 5.5319621 z M 23.86676 5.5319621 C 23.63718 5.5319621 23.441099 5.5872937 23.278166 5.6983602 C 23.115239 5.8094266 22.989284 5.9649988 22.900411 6.1649984 C 22.818951 6.3575313 22.777938 6.5872458 22.777938 6.8538452 L 22.777938 6.8760661 L 24.955583 6.8760661 L 24.955583 6.8538452 C 24.955583 6.5872458 24.911124 6.3575313 24.822257 6.1649984 C 24.740792 5.9649988 24.618797 5.8094266 24.455872 5.6983602 C 24.292938 5.5872937 24.09634 5.5319621 23.86676 5.5319621 z M 16.235701 15.315344 L 19.25929 15.315344 C 19.449444 15.315344 19.610907 15.381706 19.744014 15.514815 C 19.877124 15.647924 19.943486 15.819307 19.943486 16.028479 L 19.943486 34.568433 C 19.943486 34.777603 19.877124 34.948988 19.744014 35.082096 C 19.610907 35.215206 19.449444 35.281567 19.25929 35.281567 L 16.121497 35.281567 C 15.931341 35.281567 15.759958 35.215206 15.607833 35.082096 C 15.474724 34.948988 15.408362 34.777603 15.408362 34.568433 L 15.408362 20.392554 L 11.301119 23.558769 C 11.129979 23.691878 10.949189 23.739427 10.759033 23.701396 C 10.587893 23.663362 10.43584 23.558858 10.30273 23.38772 L 8.8764608 21.533569 C 8.7623674 21.36243 8.7148182 21.181638 8.7338338 20.991484 C 8.771865 20.801328 8.8763696 20.649274 9.0475098 20.535181 L 15.550989 15.514815 C 15.665082 15.438753 15.769587 15.391204 15.864665 15.372188 C 15.978758 15.334155 16.102593 15.315344 16.235701 15.315344 z " />
  </g>
</svg>
