<?xml version="1.0" encoding="UTF-8" standalone="no"?>
<!-- Created with Inkscape (http://www.inkscape.org/) -->

<svg
   width="36.484741mm"
   height="52.346222mm"
   viewBox="0 0 36.484741 52.346222"
   version="1.1"
   id="svg1"
   inkscape:version="1.3.2 (091e20ef0f, 2023-11-25)"
   sodipodi:docname="other guy.svg"
   xmlns:inkscape="http://www.inkscape.org/namespaces/inkscape"
   xmlns:sodipodi="http://sodipodi.sourceforge.net/DTD/sodipodi-0.dtd"
   xmlns="http://www.w3.org/2000/svg"
   xmlns:svg="http://www.w3.org/2000/svg">
  <sodipodi:namedview
     id="namedview1"
     pagecolor="#ffffff"
     bordercolor="#000000"
     borderopacity="0.25"
     inkscape:showpageshadow="2"
     inkscape:pageopacity="0.0"
     inkscape:pagecheckerboard="0"
     inkscape:deskcolor="#d1d1d1"
     inkscape:document-units="mm"
     inkscape:zoom="0.77147868"
     inkscape:cx="277.38939"
     inkscape:cy="370.71666"
     inkscape:window-width="1896"
     inkscape:window-height="1052"
     inkscape:window-x="24"
     inkscape:window-y="0"
     inkscape:window-maximized="1"
     inkscape:current-layer="layer1" />
  <defs
     id="defs1" />
  <g
     inkscape:label="Layer 1"
     inkscape:groupmode="layer"
     id="layer1">
    <g
       id="g1"
       transform="translate(-23.81249,-23.28328)">
      <path
         id="path4091"
         style="fill:#3f3f3f;fill-opacity:1;stroke:none;stroke-width:1.08187;stroke-linecap:round;stroke-linejoin:round"
         d="m 45.45098,23.2841 c -5.09566,0.031 -8.64624,1.2218 -11.77066,3.3403 -4.86612,3.2996 -5.67287,8.7685 -4.99131,15.3464 0.30457,2.9396 1.66725,4.3986 4.89288,4.6011 -5.10925,3.005 -3.87064,8.4097 -4.81086,13.5823 -0.80853,4.4481 -1.8617,6.7454 -4.30101,10.6875 -1.46888,2.3739 -0.40046,4.7878 2.44467,4.7878 h 13.58622 12.32664 c 3.21541,0 7.46968,-1.587 7.46968,-5.6953 0,-1.5118 -0.44696,-3.516 -1.47461,-5.8821 -0.58856,-1.3551 -1.18874,-5.3008 -1.53269,-7.2475 -0.86138,-4.8755 -0.67102,-9.9515 -4.69203,-11.1167 3.03437,-0.3938 4.40253,-4.6508 4.40253,-10.6384 0,-6.0491 -3.46014,-11.3883 -9.26748,-11.7067 -0.79428,-0.044 -1.55401,-0.063 -2.28197,-0.059 z m 0.023,2.9968 c 0.65942,0 1.35598,0.018 2.09398,0.059 v 0 c 2.02013,0.1109 3.43333,0.9806 4.56924,2.5019 1.1359,1.5214 1.86032,3.7532 1.86032,6.2053 0,2.765 -0.3597,5.0372 -0.86145,6.3324 -0.50176,1.2953 -0.72009,1.3023 -0.92483,1.3288 a 3.003116,3.003116 0 0 0 -0.44912,5.8629 c 0.87875,0.2546 1.03891,0.5258 1.47282,2.0864 0.43393,1.5607 0.62942,4.0168 1.09775,6.6677 0.16355,0.9257 0.40377,2.4259 0.68189,3.8856 0.2781,1.4596 0.48392,2.723 1.05385,4.0354 0.90757,2.0895 1.22676,3.7669 1.22676,4.6867 0,1.0176 -0.28452,1.3229 -1.11104,1.8364 -0.82653,0.5133 -2.24262,0.8566 -3.35621,0.8566 H 40.5013 26.91507 26.88987 c 0.007,-0.048 -0.0385,0.071 0.13433,-0.208 2.5104,-4.0571 3.84373,-7.0091 4.7018,-11.7299 0.54452,-2.9956 0.47764,-5.6704 0.83795,-7.5858 0.36029,-1.9154 0.75532,-2.8963 2.54042,-3.9463 A 3.003116,3.003116 0 0 0 33.77032,43.5711 C 32.58117,43.4961 32.25167,43.255 32.12989,43.137 32.0081,43.019 31.78614,42.7214 31.6759,41.6574 c -0.31946,-3.0832 -0.24857,-5.7402 0.32142,-7.7865 0.57001,-2.0465 1.50913,-3.5038 3.36819,-4.7644 2.68232,-1.8188 5.49264,-2.8217 10.10854,-2.8272 z" />
      <path
         id="path4094"
         style="fill:#3f3f3f;fill-opacity:1;stroke-width:0.857946;stroke-linecap:round;stroke-linejoin:round"
         inkscape:transform-center-x="-3.249279e-05"
         inkscape:transform-center-y="-0.00011287938"
         d="m 48.7207,39.1451 c -0.3205,0.8612 -1.83783,0.8612 -2.15831,0 -0.32051,-0.8612 -0.32051,-4.9386 0,-5.7999 0.32048,-0.8613 1.83781,-0.8613 2.15831,0 0.32052,0.8613 0.32052,4.9387 0,5.7999 z" />
      <path
         id="path4095"
         style="fill:#3f3f3f;fill-opacity:1;stroke-width:0.857946;stroke-linecap:round;stroke-linejoin:round"
         inkscape:transform-center-x="-3.6305115e-05"
         inkscape:transform-center-y="-0.00011287938"
         d="m 42.78549,39.1451 c -0.32053,0.8612 -1.83781,0.8612 -2.15834,0 -0.32043,-0.8612 -0.32043,-4.9386 0,-5.7999 0.32053,-0.8613 1.83781,-0.8613 2.15834,0 0.32054,0.8613 0.32054,4.9387 0,5.7999 z" />
    </g>
  </g>
</svg>
